<svg width="20" height="20" viewBox="0 0 20 20" fill="none" xmlns="http://www.w3.org/2000/svg">
<path fill-rule="evenodd" clip-rule="evenodd" d="M10.3626 11.3334C12.6687 11.3334 14.5441 9.53935 14.5441 7.33335V6.00001C14.5441 3.79401 12.6687 2 10.3626 2C8.05649 2 6.18109 3.79401 6.18109 6.00001V7.33335C6.18109 9.53935 8.05649 11.3334 10.3626 11.3334ZM16.8252 10.3638H15.3047V11.8184H13.7841V13.2729H15.3047V14.7275H16.8252V13.2729H18.3458V11.8184H16.8252V10.3638ZM12.3805 12.6667C12.7031 14.188 14.1165 15.8275 16.6583 15.8275C17.1761 15.8275 17.6632 15.7129 18.1044 15.5189C18.1321 15.5652 18.159 15.6098 18.1849 15.6528C18.5407 16.2432 18.726 16.5505 18.726 17.3334V18H2V17.3334C2 14.76 4.18901 12.6667 6.87841 12.6667H12.3805Z" fill="#91909A"/>
</svg>
