<svg width="58" height="58" viewBox="0 0 58 58" fill="none" xmlns="http://www.w3.org/2000/svg">
<rect width="58" height="58" rx="5.52381" fill="#E1D6BF"/>
<path d="M20.6926 31.4184C20.5703 33.1086 19.9446 34.4392 18.8154 35.4102C17.6933 36.3812 16.2117 36.8667 14.3704 36.8667C12.3565 36.8667 10.7706 36.1906 9.61261 34.8384C8.46182 33.479 7.88642 31.6162 7.88642 29.2498V28.2896C7.88642 26.7792 8.15254 25.4486 8.68478 24.2978C9.21702 23.147 9.97583 22.266 10.9612 21.6546C11.9538 21.036 13.1045 20.7268 14.4136 20.7268C16.2261 20.7268 17.6861 21.2123 18.7938 22.1832C19.9014 23.1542 20.5416 24.5172 20.7142 26.2722H17.4776C17.3984 25.258 17.1143 24.5244 16.6253 24.0713C16.1434 23.6109 15.4061 23.3808 14.4136 23.3808C13.3347 23.3808 12.5256 23.7692 11.9861 24.546C11.4539 25.3156 11.1806 26.5131 11.1662 28.1386V29.3254C11.1662 31.0228 11.4215 32.2635 11.9322 33.0475C12.45 33.8314 13.2628 34.2234 14.3704 34.2234C15.3702 34.2234 16.1146 33.9969 16.6037 33.5437C17.1 33.0834 17.3841 32.375 17.456 31.4184H20.6926ZM35.7212 29.1527C35.7212 30.6991 35.4479 32.0549 34.9013 33.2201C34.3547 34.3853 33.5707 35.2843 32.5494 35.9172C31.5352 36.5502 30.37 36.8667 29.0538 36.8667C27.752 36.8667 26.5904 36.5538 25.5691 35.928C24.5478 35.3023 23.7566 34.4104 23.1956 33.2524C22.6346 32.0873 22.3505 30.7495 22.3433 29.239V28.4623C22.3433 26.9159 22.6202 25.5565 23.174 24.3841C23.735 23.2046 24.5226 22.3019 25.5367 21.6762C26.558 21.0432 27.7232 20.7268 29.0323 20.7268C30.3413 20.7268 31.5029 21.0432 32.517 21.6762C33.5383 22.3019 34.3259 23.2046 34.8797 24.3841C35.4407 25.5565 35.7212 26.9123 35.7212 28.4515V29.1527ZM32.4415 28.4407C32.4415 26.7936 32.1466 25.5421 31.5568 24.6862C30.967 23.8303 30.1255 23.4024 29.0323 23.4024C27.9462 23.4024 27.1083 23.8267 26.5185 24.6754C25.9287 25.517 25.6302 26.7541 25.623 28.3867V29.1527C25.623 30.7567 25.9179 32.001 26.5077 32.8856C27.0975 33.7703 27.9462 34.2126 29.0538 34.2126C30.1399 34.2126 30.9742 33.7883 31.5568 32.9396C32.1394 32.0837 32.4343 30.8394 32.4415 29.2067V28.4407ZM38.0732 36.6509V20.9425H42.9065C44.2875 20.9425 45.521 21.2554 46.607 21.8812C47.7003 22.4997 48.5526 23.3844 49.164 24.5352C49.7753 25.6788 50.081 26.9806 50.081 28.4407V29.1635C50.081 30.6236 49.7789 31.9218 49.1747 33.0582C48.5778 34.1947 47.7327 35.0757 46.6394 35.7015C45.5461 36.3272 44.3126 36.6437 42.9389 36.6509H38.0732ZM41.3098 23.5642V34.0508H42.8741C44.14 34.0508 45.1074 33.6372 45.7763 32.8101C46.4452 31.983 46.7868 30.7998 46.8012 29.2606V28.4299C46.8012 26.8332 46.4704 25.6248 45.8087 24.8049C45.147 23.9778 44.1796 23.5642 42.9065 23.5642H41.3098Z" fill="#0052BF"/>
</svg>
