<svg width="60" height="60" viewBox="0 0 60 60" fill="none" xmlns="http://www.w3.org/2000/svg">
<rect x="1" y="1" width="58" height="58" rx="5.52381" fill="white" stroke="#E1D6BF"/>
<g clip-path="url(#clip0)">
<path d="M28.3025 46.9732C23.7014 46.9732 19.1135 46.9732 14.5125 46.9732C12.4211 46.9732 11.0225 45.554 11.0225 43.3984C11.0225 36.7842 11.0225 30.1701 11.0225 23.5693C11.0225 21.4539 12.4211 19.9141 14.4864 20.048C16.4078 20.1685 17.9894 19.6062 19.6102 18.602C24.0805 15.8305 28.6292 13.1929 33.1518 10.5151C35.0994 9.36364 36.9424 9.87243 38.0404 11.8674C38.2757 12.2824 38.511 12.7109 38.7462 13.1259C39.9488 15.2816 41.1644 17.4372 42.3669 19.5928C42.5499 19.9141 42.759 20.0614 43.112 20.1418C44.589 20.4631 45.6347 21.7752 45.6608 23.3283C45.6739 24.1451 45.6739 24.9618 45.6608 25.7785C45.6608 26.4613 45.3733 26.7559 44.7066 26.7559C42.8375 26.7559 40.9552 26.7425 39.0861 26.7693C35.8837 26.8095 33.2695 29.0053 32.6028 32.2186C31.8186 35.9809 34.5635 39.8369 38.3018 40.185C40.354 40.3725 42.4061 40.2252 44.4583 40.252C45.4517 40.2654 45.6608 40.4662 45.6608 41.4838C45.6608 42.2068 45.6739 42.9164 45.6608 43.6394C45.6347 45.5406 44.2099 46.9866 42.3538 46.9866C37.6613 46.9732 32.9819 46.9732 28.3025 46.9732ZM20.6036 19.9275C20.6167 19.9543 20.6167 19.9945 20.6297 20.0213C21.5839 20.0213 22.5381 20.0213 23.5054 20.0213C23.6753 20.0213 23.8191 19.9409 23.9629 19.8606C28.028 17.4372 32.0931 15.0272 36.1582 12.6172C36.4588 12.4297 36.4065 12.3092 36.2104 12.1084C35.6745 11.5327 34.9033 11.4389 34.1583 11.8808C31.7663 13.3 29.3743 14.7192 26.9823 16.1385C24.8517 17.397 22.7342 18.6556 20.6036 19.9275ZM33.5832 19.9811C36.0144 19.9811 38.328 19.9811 40.6807 19.9811C40.2102 19.1376 39.7658 18.3476 39.3214 17.5577C38.9031 16.8213 38.9031 16.8079 38.1842 17.2364C36.681 18.12 35.1909 19.0171 33.5832 19.9811Z" fill="#404DC4"/>
<path d="M41.8448 28.4309C42.8382 28.4309 43.8316 28.4175 44.825 28.4309C46.2236 28.4443 47.2955 29.5288 47.3085 30.9614C47.3216 32.6484 47.3216 34.3354 47.3085 36.009C47.2955 37.4149 46.2367 38.5128 44.8642 38.5261C42.8774 38.5395 40.8906 38.5529 38.9038 38.5261C36.2373 38.486 34.0937 36.1697 34.1067 33.4116C34.1329 30.6936 36.3158 28.4443 38.9561 28.4175C39.9234 28.4309 40.8776 28.4309 41.8448 28.4309ZM39.0607 31.8183C38.1326 31.8183 37.4137 32.5413 37.4137 33.4919C37.4137 34.4291 38.1326 35.1655 39.0738 35.1521C39.9626 35.1521 40.6946 34.4023 40.7076 33.5053C40.7207 32.5948 39.9757 31.8317 39.0607 31.8183Z" fill="#404DC4"/>
<circle cx="45.3356" cy="18.9803" r="6.70488" fill="#EB5757"/>
<path d="M45.789 20.824H44.9035L44.806 16.4729H45.8907L45.789 20.824ZM44.7764 22.1544C44.7764 21.9934 44.8286 21.8606 44.9331 21.7561C45.0376 21.6488 45.1803 21.5951 45.3611 21.5951C45.5418 21.5951 45.6845 21.6488 45.789 21.7561C45.8935 21.8606 45.9457 21.9934 45.9457 22.1544C45.9457 22.3097 45.8949 22.4396 45.7932 22.5442C45.6915 22.6487 45.5475 22.7009 45.3611 22.7009C45.1746 22.7009 45.0306 22.6487 44.9289 22.5442C44.8272 22.4396 44.7764 22.3097 44.7764 22.1544Z" fill="white"/>
</g>
<defs>
<clipPath id="clip0">
<rect width="41.0181" height="37.8629" fill="white" transform="translate(11.0225 9.90869)"/>
</clipPath>
</defs>
</svg>
