<svg width="45" height="46" viewBox="0 0 45 46" fill="none" xmlns="http://www.w3.org/2000/svg">
<rect x="0.396395" y="1.14493" width="43.9976" height="43.9976" rx="3.98283" fill="white" stroke="#E1D6BF" stroke-width="0.79279"/>
<g clip-path="url(#clip0)">
<path d="M20.5253 36.0761C16.8777 36.0761 13.2404 36.0761 9.59274 36.0761C7.93473 36.0761 6.82593 34.9509 6.82593 33.242C6.82593 27.9983 6.82593 22.7547 6.82593 17.5217C6.82593 15.8446 7.93473 14.6239 9.57202 14.73C11.0953 14.8256 12.3492 14.3797 13.6342 13.5836C17.1782 11.3864 20.7844 9.29533 24.3698 7.1724C25.9138 6.25954 27.375 6.6629 28.2454 8.24448C28.432 8.57353 28.6185 8.9132 28.805 9.24226C29.7584 10.9512 30.7221 12.6602 31.6755 14.3691C31.8205 14.6239 31.9863 14.7406 32.2661 14.8043C33.4371 15.0591 34.2661 16.0993 34.2868 17.3306C34.2972 17.9781 34.2972 18.6256 34.2868 19.2731C34.2868 19.8144 34.0589 20.048 33.5304 20.048C32.0485 20.048 30.5563 20.0373 29.0744 20.0586C26.5356 20.0904 24.4631 21.8312 23.9346 24.3787C23.3128 27.3614 25.489 30.4185 28.4527 30.6944C30.0796 30.843 31.7065 30.7263 33.3335 30.7475C34.121 30.7581 34.2868 30.9174 34.2868 31.7241C34.2868 32.2973 34.2972 32.8598 34.2868 33.433C34.2661 34.9403 33.1366 36.0867 31.6651 36.0867C27.9449 36.0761 24.2351 36.0761 20.5253 36.0761ZM14.4217 14.6345C14.4321 14.6557 14.4321 14.6876 14.4424 14.7088C15.1989 14.7088 15.9554 14.7088 16.7222 14.7088C16.8569 14.7088 16.9709 14.6451 17.0849 14.5814C20.3077 12.6602 23.5304 10.7495 26.7532 8.8389C26.9916 8.69029 26.9501 8.59476 26.7947 8.43554C26.3698 7.97911 25.7584 7.90481 25.1677 8.25509C23.2714 9.38025 21.375 10.5054 19.4787 11.6305C17.7896 12.6283 16.1108 13.6261 14.4217 14.6345ZM24.7118 14.677C26.6392 14.677 28.4734 14.677 30.3387 14.677C29.9656 14.0082 29.6133 13.382 29.261 12.7557C28.9294 12.1719 28.9294 12.1613 28.3594 12.501C27.1677 13.2015 25.9864 13.9127 24.7118 14.677Z" fill="#219626"/>
<path d="M31.2617 21.3757C32.0492 21.3757 32.8368 21.3651 33.6243 21.3757C34.7331 21.3863 35.5829 22.2461 35.5932 23.3819C35.6036 24.7193 35.6036 26.0568 35.5932 27.3836C35.5829 28.4982 34.7435 29.3686 33.6554 29.3792C32.0803 29.3898 30.5052 29.4004 28.9301 29.3792C26.8161 29.3473 25.1166 27.511 25.127 25.3244C25.1477 23.1696 26.8783 21.3863 28.9715 21.3651C29.7384 21.3757 30.4948 21.3757 31.2617 21.3757ZM29.0544 24.0612C28.3187 24.0612 27.7487 24.6344 27.7487 25.3881C27.7487 26.1311 28.3187 26.7149 29.0648 26.7043C29.7695 26.7043 30.3498 26.1099 30.3601 25.3987C30.3705 24.6769 29.7798 24.0718 29.0544 24.0612Z" fill="#219626"/>
</g>
<defs>
<clipPath id="clip0">
<rect width="32.5188" height="30.0173" fill="white" transform="translate(6.82593 6.69165)"/>
</clipPath>
</defs>
</svg>
