<svg width="18" height="20" viewBox="0 0 18 20" fill="none" xmlns="http://www.w3.org/2000/svg">
<path fill-rule="evenodd" clip-rule="evenodd" d="M11.5818 11.7511L10.0402 13.4395L6.10415 9.06515L7.62334 7.35181C7.81125 7.13937 7.86501 6.8218 7.75941 6.54799L6.17746 2.44449C6.04821 2.11004 5.71795 1.93136 5.40135 2.0246L2.49507 2.8776C2.19598 2.9636 1.99049 3.26851 2.00034 3.61168C2.18518 7.36568 3.58964 10.9175 5.95289 13.6076C8.37418 16.2344 11.5712 17.7951 14.9498 17.9996C15.2586 18.0106 15.533 17.7822 15.6103 17.4498L16.3779 14.2199C16.4618 13.868 16.301 13.501 16 13.3573L12.3077 11.5992C12.0605 11.4807 11.7733 11.5408 11.5818 11.7511Z" fill="#91909A"/>
</svg>
