<svg width="13" height="16" viewBox="0 0 13 16" fill="none" xmlns="http://www.w3.org/2000/svg">
<path fill-rule="evenodd" clip-rule="evenodd" d="M6.42744 0C3.28514 0 0 2.36522 0 6.26087C0 9.94783 5.71328 15.5826 5.92753 15.7913C6.07036 15.9304 6.2132 16 6.42744 16C6.64169 16 6.78452 15.9304 6.92736 15.7913C7.1416 15.5826 12.8549 9.94783 12.8549 6.26087C12.8549 2.36522 9.56975 0 6.42744 0ZM6.42725 8.34794C5.21317 8.34794 4.28477 7.44359 4.28477 6.26098C4.28477 5.07837 5.21317 4.17402 6.42725 4.17402C7.64132 4.17402 8.56973 5.07837 8.56973 6.26098C8.56973 7.44359 7.64132 8.34794 6.42725 8.34794Z" fill="#91909A"/>
</svg>
