<svg width="257" height="29" viewBox="0 0 257 29" fill="none" xmlns="http://www.w3.org/2000/svg">
<path d="M47.6144 15.7225C46.6317 15.0078 45.2918 14.4718 43.9518 14.3825C42.8798 14.2932 41.7185 14.4718 40.6465 14.9185V15.9011V17.0625C40.7358 16.9731 40.9145 16.7945 41.0931 16.7051C41.8971 16.0798 42.9691 15.7225 44.0411 15.5438C45.1131 15.4545 46.2744 15.6332 47.3464 16.1691C48.4184 16.7051 49.3117 17.4198 49.937 18.4024C49.401 17.4198 48.597 16.4371 47.6144 15.7225Z" fill="#2E82BC"/>
<path d="M8.21856 19.9211V19.2958V18.6704C7.14657 18.4025 6.07459 18.4025 5.0026 18.6704C3.75195 18.9384 2.59063 19.6531 1.69731 20.4571C0.80399 21.3504 0.267997 22.4224 0 23.4944C0.446661 22.4224 1.16132 21.4397 2.05464 20.8144C2.94796 20.0998 4.10928 19.6531 5.18127 19.5638C6.25325 19.3851 7.32524 19.5638 8.21856 19.9211Z" fill="#2E82BC"/>
<path d="M40.6464 19.3851C40.4678 19.2957 40.2891 19.2064 40.1104 19.1171C39.8424 19.0277 39.5744 18.9384 39.3064 18.8491C39.1278 18.7597 38.9491 18.7597 38.7704 18.6704C38.5918 18.5811 38.3238 18.5811 38.1451 18.4918C37.9665 18.4918 37.8771 18.4024 37.6985 18.4024C37.0731 18.2238 36.4478 18.1344 35.8225 18.0451C34.7505 17.8664 33.6785 17.8664 32.6065 17.8664C31.3559 17.9558 30.0159 18.1344 28.7652 18.4918C27.9613 18.7597 27.2466 19.0277 26.5319 19.3851C26.0853 19.5637 25.6386 19.8317 25.2813 20.0997C23.4053 21.1717 21.7973 22.6904 20.636 24.477C20.5467 24.3877 20.4573 24.3877 20.368 24.2983C18.6707 23.3157 16.6161 22.7797 14.5614 22.7797C14.0254 22.7797 13.5788 22.7797 13.0428 22.869C12.4175 22.9584 11.7921 23.0477 11.1668 23.2264C10.8095 23.3157 10.4521 23.4944 10.0948 23.5837C9.64816 23.7623 9.11216 24.0303 8.6655 24.209C8.48684 24.2983 8.30817 24.3877 8.12951 24.477C6.61086 25.4597 5.44954 26.7996 4.82422 28.3183C6.1642 27.0676 7.68285 26.085 9.29083 25.4597C10.8988 24.8343 12.6855 24.477 14.3828 24.477C16.1694 24.477 17.8667 24.745 19.4747 25.4597C21.0827 26.085 22.6013 27.0676 23.9413 28.3183C23.9413 28.3183 25.5493 20.9037 32.7852 19.6531C40.1998 18.3131 45.5597 23.2264 45.5597 23.2264C45.113 22.7797 44.7557 22.4224 44.309 22.065C44.7557 22.4224 45.2024 22.7797 45.5597 23.2264C44.4877 21.7077 42.7011 20.3677 40.6464 19.3851Z" fill="#2E82BC"/>
<path d="M40.6463 10.2732V9.29055V4.19861L39.9317 4.01995C39.1277 3.84128 38.413 3.66262 37.609 3.66262V0.982654L36.9837 0.80399C35.3757 0.267996 33.8571 0 32.5171 0C30.9985 0 29.7478 0.267997 28.5865 0.714657C26.8892 1.33998 25.6385 2.2333 24.8345 3.03729C24.6559 3.21596 24.4772 3.39462 24.3879 3.48395C24.0305 3.12663 23.5839 2.67997 22.9586 2.2333C22.2439 1.69731 21.2612 1.16132 20.1893 0.714657C19.1173 0.267997 17.7773 0 16.2586 0C14.9187 0 13.4 0.267996 11.792 0.80399L11.1667 0.982654V3.75195C10.4521 3.75195 9.64806 3.93062 8.84408 4.10928L8.21875 4.19861V11.8812V12.5065V13.1318V15.2758V22.4224C8.39741 22.333 8.57608 22.2437 8.75474 22.1544C9.2014 21.8864 9.64806 21.7077 10.1841 21.5291V21.2611V15.0078V14.3825V13.3998V12.5065V5.53859C10.5414 5.44926 10.8987 5.44926 11.256 5.44926V13.2212V14.2931V14.8291V15.0971V15.3651V21.1717C11.8814 20.9931 12.5067 20.9037 13.132 20.8144V20.7251V12.8638V5.53859V4.64527V3.75195V2.2333C14.2933 1.87598 15.3653 1.78664 16.2586 1.78664C17.5093 1.78664 18.5813 2.05464 19.4746 2.32264C20.8146 2.85863 21.8866 3.57329 22.6012 4.28794C22.9586 4.64527 23.2266 4.91327 23.4052 5.09193L23.4946 5.18127V10.0945V10.7199V17.2411L23.7625 16.9731C24.2092 16.6158 24.9239 16.4371 25.3705 16.3478V10.0052V5.09193C25.6385 4.73461 26.1745 4.10928 27.0678 3.48395C27.6932 3.03729 28.4078 2.59063 29.3905 2.2333C30.2838 1.87598 31.3558 1.69731 32.6064 1.69731C33.5891 1.69731 34.6611 1.87598 35.8224 2.14397V3.75195V4.64527V5.53859V15.7225C36.4477 15.8118 37.073 15.9011 37.6984 16.0798V15.9905V10.1839V5.44926C38.0557 5.44926 38.413 5.53859 38.7704 5.53859V10.2732V10.7199V16.1691V16.3478C38.949 16.4371 39.1277 16.4371 39.3063 16.5265C39.5743 16.6158 39.8423 16.7051 40.1103 16.7944C40.289 16.8838 40.4677 16.9731 40.6463 17.0624V16.0798V10.2732Z" fill="#F46F14"/>
<path d="M189.018 15.2758H183.033V19.1171H189.733V22.1544H179.37V5.8959H189.375V8.9332H183.033V12.3278H189.018V15.2758Z" fill="#F46F14"/>
<path d="M192.859 6.16394C193.842 5.98527 195.718 5.80661 197.594 5.80661C199.827 5.80661 201.167 5.98527 202.418 6.69993C203.579 7.32526 204.383 8.39724 204.383 9.91589C204.383 11.3452 203.579 12.6852 201.703 13.3998C203.579 13.8465 204.919 15.2758 204.919 17.4198C204.919 18.9384 204.205 20.0998 203.222 20.9037C202.061 21.8864 200.095 22.4224 196.879 22.4224C195.093 22.4224 193.753 22.3331 192.949 22.1544V6.16394H192.859ZM196.522 12.3279H197.683C199.649 12.3279 200.631 11.5239 200.631 10.2732C200.631 9.02257 199.738 8.39724 198.041 8.39724C197.237 8.39724 196.79 8.48658 196.522 8.48658V12.3279ZM196.522 19.5638C196.879 19.6531 197.326 19.6531 197.951 19.6531C199.649 19.6531 201.078 19.0278 201.078 17.3305C201.078 15.7225 199.649 15.0972 197.773 15.0972H196.522V19.5638Z" fill="#F46F14"/>
<path d="M222.875 13.8465C222.875 19.2064 219.659 22.4224 214.925 22.4224C210.101 22.4224 207.242 18.7598 207.242 14.1145C207.242 9.29055 210.369 5.62793 215.103 5.62793C220.106 5.62793 222.875 9.37988 222.875 13.8465ZM211.173 14.1145C211.173 17.3304 212.691 19.5637 215.103 19.5637C217.605 19.5637 219.034 17.2411 219.034 14.0252C219.034 11.0772 217.694 8.57589 215.103 8.57589C212.602 8.57589 211.173 10.8985 211.173 14.1145Z" fill="#F46F14"/>
<path d="M240.742 13.8465C240.742 19.2064 237.526 22.4224 232.791 22.4224C227.967 22.4224 225.108 18.7598 225.108 14.1145C225.108 9.29055 228.235 5.62793 232.97 5.62793C237.972 5.62793 240.742 9.37988 240.742 13.8465ZM229.039 14.1145C229.039 17.3304 230.558 19.5637 232.97 19.5637C235.471 19.5637 236.9 17.2411 236.9 14.0252C236.9 11.0772 235.56 8.57589 232.97 8.57589C230.468 8.57589 229.039 10.8985 229.039 14.1145Z" fill="#F46F14"/>
<path d="M243.779 5.89594H247.441V13.0425H247.531C247.888 12.4172 248.245 11.8812 248.603 11.2559L252.265 5.80661H256.732L251.372 12.6852L257 21.9757H252.712L248.692 15.0078L247.352 16.7051V21.9757H243.689V5.89594H243.779Z" fill="#F46F14"/>
<path d="M56 21.8555V6.21484H60.8125C62.1875 6.21484 63.4157 6.52637 64.4971 7.14941C65.5856 7.7653 66.4342 8.64616 67.043 9.79199C67.6517 10.9307 67.9561 12.2269 67.9561 13.6807V14.4004C67.9561 15.8542 67.6553 17.1468 67.0537 18.2783C66.4593 19.4098 65.6178 20.2871 64.5293 20.9102C63.4408 21.5332 62.2126 21.8483 60.8447 21.8555H56ZM59.2227 8.8252V19.2666H60.7803C62.0407 19.2666 63.0039 18.8548 63.6699 18.0312C64.3359 17.2077 64.6761 16.0296 64.6904 14.4971V13.6699C64.6904 12.0801 64.361 10.877 63.7021 10.0605C63.0433 9.23698 62.0801 8.8252 60.8125 8.8252H59.2227Z" fill="#004C4C"/>
<path d="M78.9023 18.6328H73.252L72.1777 21.8555H68.751L74.5732 6.21484H77.5596L83.4141 21.8555H79.9873L78.9023 18.6328ZM74.1221 16.0225H78.0322L76.0664 10.168L74.1221 16.0225Z" fill="#004C4C"/>
<path d="M90.665 16.1299H88.0977V21.8555H84.875V6.21484H90.6865C92.5342 6.21484 93.9593 6.62663 94.9619 7.4502C95.9645 8.27376 96.4658 9.4375 96.4658 10.9414C96.4658 12.0085 96.2331 12.9001 95.7676 13.6162C95.3092 14.3252 94.611 14.891 93.6729 15.3135L97.0566 21.7051V21.8555H93.5977L90.665 16.1299ZM88.0977 13.5195H90.6973C91.5065 13.5195 92.1331 13.3154 92.5771 12.9072C93.0212 12.4919 93.2432 11.9225 93.2432 11.1992C93.2432 10.4616 93.0319 9.88151 92.6094 9.45898C92.194 9.03646 91.5531 8.8252 90.6865 8.8252H88.0977V13.5195Z" fill="#004C4C"/>
<path d="M103.824 15.582L102.148 17.3867V21.8555H98.9258V6.21484H102.148V13.3047L103.566 11.3604L107.552 6.21484H111.516L105.962 13.165L111.677 21.8555H107.842L103.824 15.582Z" fill="#004C4C"/>
<path d="M116.113 19.2666H122.956V21.8555H112.891V6.21484H116.113V19.2666Z" fill="#004C4C"/>
<path d="M128.241 21.8555H125.019V6.21484H128.241V21.8555Z" fill="#004C4C"/>
<path d="M143.613 19.8789C143.033 20.5736 142.213 21.1143 141.153 21.501C140.093 21.8805 138.919 22.0703 137.63 22.0703C136.276 22.0703 135.088 21.7767 134.063 21.1895C133.047 20.5951 132.259 19.7357 131.7 18.6113C131.149 17.487 130.866 16.1657 130.852 14.6475V13.584C130.852 12.0228 131.113 10.6729 131.636 9.53418C132.166 8.38835 132.925 7.51465 133.913 6.91309C134.909 6.30436 136.072 6 137.404 6C139.259 6 140.709 6.44401 141.755 7.33203C142.8 8.21289 143.42 9.49837 143.613 11.1885H140.477C140.333 10.2933 140.015 9.63802 139.521 9.22266C139.034 8.80729 138.36 8.59961 137.501 8.59961C136.405 8.59961 135.571 9.01139 134.998 9.83496C134.425 10.6585 134.135 11.8831 134.128 13.5088V14.5078C134.128 16.1478 134.439 17.3867 135.062 18.2246C135.686 19.0625 136.599 19.4814 137.802 19.4814C139.012 19.4814 139.875 19.2236 140.391 18.708V16.0117H137.458V13.6377H143.613V19.8789Z" fill="#004C4C"/>
<path d="M158.964 21.8555H155.741V15.1523H149.457V21.8555H146.234V6.21484H149.457V12.5527H155.741V6.21484H158.964V21.8555Z" fill="#004C4C"/>
<path d="M173.24 8.8252H168.449V21.8555H165.227V8.8252H160.5V6.21484H173.24V8.8252Z" fill="#004C4C"/>
</svg>
