<svg width="18" height="22" viewBox="0 0 18 22" fill="none" xmlns="http://www.w3.org/2000/svg">
<path fill-rule="evenodd" clip-rule="evenodd" d="M3.5 17C3.10218 17 2.72064 17.158 2.43934 17.4393C2.15804 17.7206 2 18.1022 2 18.5C2 19.0523 1.55228 19.5 1 19.5C0.447715 19.5 0 19.0523 0 18.5C0 17.5717 0.368749 16.6815 1.02513 16.0251C1.6815 15.3687 2.57174 15 3.5 15H17C17.5523 15 18 15.4477 18 16C18 16.5523 17.5523 17 17 17H3.5Z" fill="#828282"/>
<path fill-rule="evenodd" clip-rule="evenodd" d="M3.5 2C3.10218 2 2.72064 2.15804 2.43934 2.43934C2.15804 2.72064 2 3.10218 2 3.5V18.5C2 18.8978 2.15804 19.2794 2.43934 19.5607C2.72064 19.842 3.10218 20 3.5 20H16V2H3.5ZM3.5 0H17C17.5523 0 18 0.447715 18 1V21C18 21.5523 17.5523 22 17 22H3.5C2.57174 22 1.6815 21.6313 1.02513 20.9749C0.368749 20.3185 0 19.4283 0 18.5V3.5C0 2.57174 0.368749 1.6815 1.02513 1.02513C1.6815 0.368749 2.57174 0 3.5 0Z" fill="#828282"/>
</svg>
