<svg width="20" height="20" viewBox="0 0 20 20" fill="none" xmlns="http://www.w3.org/2000/svg">
<path fill-rule="evenodd" clip-rule="evenodd" d="M18.8779 8.52175L10.4751 1.0217C10.1938 0.77076 9.78937 0.77076 9.50805 1.0217L1.10529 8.52175C0.786332 8.81534 0.74238 9.33383 1.00657 9.68624C1.27077 10.0386 1.74531 10.0945 2.07237 9.81176L3.1166 8.88009V18.3335C3.1166 18.7937 3.45861 19.1668 3.88049 19.1668H8.46381V14.1668H11.5194V19.1668H16.1027C16.5246 19.1668 16.8666 18.7937 16.8666 18.3335V8.88009L17.9108 9.81176C18.1215 10.0057 18.4117 10.0608 18.6701 9.95577C18.9284 9.85078 19.1149 9.60207 19.1579 9.30499C19.201 9.00791 19.094 8.70857 18.8779 8.52175Z" fill="#C1C0C8"/>
</svg>
