<svg width="24" height="24" viewBox="0 0 24 24" fill="none" xmlns="http://www.w3.org/2000/svg">
<path d="M9 13.5H3.75C3.336 13.5 3 13.164 3 12.75V3.75C3 3.336 3.336 3 3.75 3H17.25C17.664 3 18 3.336 18 3.75V7.5H16.5V4.5H4.5V12H9V13.5Z" fill="#828282"/>
<path d="M15.75 14.9998C13.5368 14.9998 11.6977 14.5206 10.5 13.7158C10.5 14.2753 10.5 14.6443 10.5 14.9998C10.5 16.2426 12.8505 17.2498 15.75 17.2498C18.6495 17.2498 21 16.2426 21 14.9998C21 14.6443 21 14.2753 21 13.7158C19.8022 14.5206 17.9633 14.9998 15.75 14.9998Z" fill="#828282"/>
<path d="M15.75 18.7498C13.5368 18.7498 11.6977 18.2706 10.5 17.4658C10.5 18.0253 10.5 18.3943 10.5 18.7498C10.5 19.9926 12.8505 20.9998 15.75 20.9998C18.6495 20.9998 21 19.9926 21 18.7498C21 18.3943 21 18.0253 21 17.4658C19.8022 18.2706 17.9633 18.7498 15.75 18.7498Z" fill="#828282"/>
<path d="M9.68175 9.504C10.1963 8.90325 10.9823 8.41275 11.9813 8.067C11.8905 7.3275 11.265 6.75 10.5 6.75C9.67275 6.75 9 7.42275 9 8.25C9 8.775 9.27225 9.23625 9.68175 9.504Z" fill="#828282"/>
<path d="M15.75 13.5C18.6495 13.5 21 12.4926 21 11.25C21 10.0074 18.6495 9 15.75 9C12.8505 9 10.5 10.0074 10.5 11.25C10.5 12.4926 12.8505 13.5 15.75 13.5Z" fill="#828282"/>
</svg>
