<svg width="18" height="18" viewBox="0 0 18 18" fill="none" xmlns="http://www.w3.org/2000/svg">
<path d="M16.2 10.8H1.8V5.4H6.372L4.5 7.947L5.958 9L8.1 6.084L9 4.86L9.9 6.084L12.042 9L13.5 7.947L11.628 5.4H16.2V10.8ZM16.2 15.3H1.8V13.5H16.2V15.3ZM6.3 1.8C6.53869 1.8 6.76761 1.89482 6.9364 2.0636C7.10518 2.23239 7.2 2.4613 7.2 2.7C7.2 2.93869 7.10518 3.16761 6.9364 3.3364C6.76761 3.50518 6.53869 3.6 6.3 3.6C6.06131 3.6 5.83239 3.50518 5.6636 3.3364C5.49482 3.16761 5.4 2.93869 5.4 2.7C5.4 2.4613 5.49482 2.23239 5.6636 2.0636C5.83239 1.89482 6.06131 1.8 6.3 1.8ZM11.7 1.8C11.9387 1.8 12.1676 1.89482 12.3364 2.0636C12.5052 2.23239 12.6 2.4613 12.6 2.7C12.6 2.93869 12.5052 3.16761 12.3364 3.3364C12.1676 3.50518 11.9387 3.6 11.7 3.6C11.4613 3.6 11.2324 3.50518 11.0636 3.3364C10.8948 3.16761 10.8 2.93869 10.8 2.7C10.8 2.4613 10.8948 2.23239 11.0636 2.0636C11.2324 1.89482 11.4613 1.8 11.7 1.8ZM16.2 3.6H14.238C14.337 3.321 14.4 3.015 14.4 2.7C14.4 1.98392 14.1155 1.29716 13.6092 0.790812C13.1028 0.284464 12.4161 0 11.7 0C10.755 0 9.936 0.486 9.45 1.215L9 1.8L8.55 1.206C8.064 0.486 7.245 0 6.3 0C5.58392 0 4.89716 0.284464 4.39081 0.790812C3.88446 1.29716 3.6 1.98392 3.6 2.7C3.6 3.015 3.663 3.321 3.762 3.6H1.8C0.801 3.6 0 4.401 0 5.4V15.3C0 16.299 0.801 17.1 1.8 17.1H16.2C17.199 17.1 18 16.299 18 15.3V5.4C18 4.401 17.199 3.6 16.2 3.6Z" fill="#4A53EC"/>
</svg>
