<svg width="20" height="20" viewBox="0 0 20 20" fill="none" xmlns="http://www.w3.org/2000/svg">
<path fill-rule="evenodd" clip-rule="evenodd" d="M17.9163 15.8335H14.9997C13.1617 15.8335 11.6663 14.3382 11.6663 12.5003C11.6663 10.6623 13.1617 9.16699 14.9997 9.16699H17.9163C18.1466 9.16699 18.333 8.98063 18.333 8.75032V7.50034C18.333 6.6266 17.6553 5.91603 16.799 5.84712L14.406 1.6675C14.1843 1.28095 13.8262 1.00466 13.3977 0.889938C12.9713 0.775994 12.5253 0.835837 12.1436 1.05798L3.94042 5.83369H2.49968C1.58051 5.83369 0.833008 6.58113 0.833008 7.50034V17.5002C0.833008 18.4193 1.58047 19.1668 2.49968 19.1668H16.6663C17.5855 19.1668 18.333 18.4194 18.333 17.5002V16.2502C18.333 16.0199 18.1466 15.8335 17.9163 15.8335ZM14.9226 4.24792L15.8305 5.83368H12.1988L14.9226 4.24792ZM5.59662 5.83368L12.5631 1.77816C12.7515 1.66789 12.9716 1.63859 13.182 1.69476C13.3948 1.75171 13.5722 1.88925 13.6825 2.08171L13.6834 2.08323L7.24157 5.83368H5.59662ZM17.9162 10.0002H14.9996C13.621 10.0002 12.4996 11.1216 12.4996 12.5002C12.4996 13.8787 13.621 15.0002 14.9996 15.0002H17.9162C18.6055 15.0002 19.1662 14.4395 19.1662 13.7502V11.2502C19.1662 10.5609 18.6055 10.0002 17.9162 10.0002ZM14.9998 13.3335C14.5404 13.3335 14.1665 12.9595 14.1665 12.5002C14.1665 12.0408 14.5404 11.6668 14.9998 11.6668C15.4592 11.6668 15.8331 12.0408 15.8331 12.5002C15.8331 12.9595 15.4592 13.3335 14.9998 13.3335Z" fill="#4953ED"/>
</svg>
