<svg width="13" height="13" viewBox="0 0 13 13" fill="none" xmlns="http://www.w3.org/2000/svg">
<g clip-path="url(#clip0_1368_42681)">
<path d="M12.1875 6.50638H0.8125C0.592448 6.50638 0.402018 6.42817 0.241211 6.27175C0.0804036 6.11532 0 5.92508 0 5.70102C0 5.47695 0.0782878 5.28459 0.234863 5.12394C0.391439 4.96329 0.583984 4.88297 0.8125 4.88297H1.52344C1.69271 5.13662 1.91064 5.33532 2.17725 5.47906C2.44385 5.6228 2.73372 5.69467 3.04688 5.69467C3.36003 5.69467 3.6499 5.6228 3.9165 5.47906C4.18311 5.33532 4.40104 5.13662 4.57031 4.88297H8.42969C8.59896 5.13662 8.81689 5.33532 9.0835 5.47906C9.3501 5.6228 9.63997 5.69467 9.95312 5.69467C10.2663 5.69467 10.5562 5.6228 10.8228 5.47906C11.0894 5.33532 11.3073 5.13662 11.4766 4.88297H12.1875C12.416 4.88297 12.6086 4.96329 12.7651 5.12394C12.9217 5.28459 13 5.47695 13 5.70102C13 5.92508 12.9196 6.11532 12.7588 6.27175C12.598 6.42817 12.4076 6.50638 12.1875 6.50638ZM10.2324 4.80687C10.0716 4.89988 9.90234 4.92102 9.72461 4.87028C9.54688 4.81955 9.41146 4.71386 9.31836 4.55321L7.40137 1.02736C7.30827 0.866706 7.28499 0.695487 7.33154 0.513698C7.37809 0.33191 7.48177 0.194511 7.64258 0.101503C7.80339 0.00849493 7.97266 -0.0126433 8.15039 0.0380884C8.32812 0.0888201 8.46354 0.194511 8.55664 0.355162L10.4736 3.88102C10.5667 4.04167 10.59 4.21289 10.5435 4.39467C10.4969 4.57646 10.3932 4.71386 10.2324 4.80687ZM3.68164 4.55321C3.58854 4.71386 3.45312 4.81955 3.27539 4.87028C3.09766 4.92102 2.92839 4.89988 2.76758 4.80687C2.60677 4.71386 2.50309 4.57646 2.45654 4.39467C2.40999 4.21289 2.43327 4.04167 2.52637 3.88102L4.44336 0.355162C4.53646 0.194511 4.67188 0.0888201 4.84961 0.0380884C5.02734 -0.0126433 5.19661 0.00849493 5.35742 0.101503C5.51823 0.194511 5.62191 0.33191 5.66846 0.513698C5.71501 0.695487 5.69173 0.866706 5.59863 1.02736L3.68164 4.55321ZM11.375 12.1883C11.3073 12.5265 11.1825 12.7464 11.0005 12.8478C10.8185 12.9493 10.5413 13 10.1689 13H2.88184C2.50098 13 2.21322 12.9493 2.01855 12.8478C1.82389 12.7464 1.69271 12.5265 1.625 12.1883L0.8125 7.31809H12.1875L11.375 12.1883ZM9.34375 9.75321H8.125V8.53565C8.125 8.42573 8.0848 8.33061 8.00439 8.25028C7.92399 8.16996 7.82878 8.1298 7.71875 8.1298C7.60872 8.1298 7.51351 8.16996 7.43311 8.25028C7.3527 8.33061 7.3125 8.42573 7.3125 8.53565V9.75321H6.09375C5.98372 9.75321 5.88851 9.79337 5.80811 9.8737C5.7277 9.95402 5.6875 10.0491 5.6875 10.1591C5.6875 10.269 5.7277 10.3641 5.80811 10.4444C5.88851 10.5248 5.98372 10.5649 6.09375 10.5649H7.3125V11.7825C7.3125 11.8924 7.3527 11.9875 7.43311 12.0678C7.51351 12.1482 7.60872 12.1883 7.71875 12.1883C7.82878 12.1883 7.92399 12.1482 8.00439 12.0678C8.0848 11.9875 8.125 11.8924 8.125 11.7825V10.5649H9.34375C9.45378 10.5649 9.54899 10.5248 9.62939 10.4444C9.7098 10.3641 9.75 10.269 9.75 10.1591C9.75 10.0491 9.7098 9.95402 9.62939 9.8737C9.54899 9.79337 9.45378 9.75321 9.34375 9.75321Z" fill="white"/>
</g>
<defs>
<clipPath id="clip0_1368_42681">
<rect width="13" height="13" fill="white"/>
</clipPath>
</defs>
</svg>
