<svg width="12" height="17" viewBox="0 0 12 17" fill="none" xmlns="http://www.w3.org/2000/svg">
<path d="M11.5312 3.229L8.9375 0.635254C8.65625 0.354004 8.28125 0.166504 7.875 0.166504H1.5C0.65625 0.166504 0 0.854004 0 1.6665V14.6665C0 15.5103 0.65625 16.1665 1.5 16.1665H10.5C11.3125 16.1665 12 15.5103 12 14.6665V4.2915C12 3.88525 11.8125 3.51025 11.5312 3.229ZM10.375 4.1665H8V1.7915L10.375 4.1665ZM1.5 14.6665V1.6665H6.5V4.9165C6.5 5.354 6.8125 5.6665 7.25 5.6665H10.5V14.6665H1.5ZM8.625 8.07275L7 9.729V8.5415C7 8.19775 6.71875 7.9165 6.375 7.9165H3.125C2.75 7.9165 2.5 8.19775 2.5 8.5415V11.7915C2.5 12.1665 2.75 12.4165 3.125 12.4165H6.375C6.71875 12.4165 7 12.1665 7 11.7915V10.6353L8.625 12.2915C8.9375 12.604 9.5 12.3853 9.5 11.9165V8.44775C9.5 7.979 8.9375 7.76025 8.625 8.07275Z" fill="#2E82BC"/>
</svg>
