<svg width="14" height="14" viewBox="0 0 14 14" fill="none" xmlns="http://www.w3.org/2000/svg">
<path d="M0.421718 8.08667C0.302136 7.36717 0.302136 6.63285 0.421718 5.91334C1.15638 5.93067 1.81639 5.57867 2.07305 4.95934C2.32972 4.33934 2.11172 3.62334 1.57972 3.11734C2.00399 2.52353 2.52343 2.00387 3.11705 1.57934C3.62372 2.11134 4.33972 2.32934 4.95972 2.07267C5.57972 1.81601 5.93105 1.15534 5.91305 0.421341C6.633 0.30161 7.36777 0.30161 8.08772 0.421341C8.06972 1.15601 8.42172 1.81601 9.04105 2.07267C9.66105 2.32934 10.3771 2.11134 10.8831 1.57934C11.4769 2.00362 11.9965 2.52305 12.4211 3.11667C11.8891 3.62334 11.6711 4.33934 11.9277 4.95934C12.1844 5.57934 12.8451 5.93067 13.5791 5.91267C13.6988 6.63262 13.6988 7.3674 13.5791 8.08734C12.8444 8.06934 12.1844 8.42134 11.9277 9.04067C11.6711 9.66068 11.8891 10.3767 12.4211 10.8827C11.9968 11.4765 11.4773 11.9961 10.8837 12.4207C10.3771 11.8887 9.66105 11.6707 9.04105 11.9273C8.42105 12.184 8.06972 12.8447 8.08772 13.5787C7.36777 13.6984 6.633 13.6984 5.91305 13.5787C5.93105 12.844 5.57905 12.184 4.95972 11.9273C4.33972 11.6707 3.62372 11.8887 3.11772 12.4207C2.52391 11.9964 2.00425 11.477 1.57972 10.8833C2.11172 10.3767 2.32972 9.66068 2.07305 9.04067C1.81639 8.42067 1.15572 8.06934 0.421718 8.08734V8.08667ZM7.00039 9.00001C7.53082 9.00001 8.03953 8.78929 8.4146 8.41422C8.78967 8.03915 9.00039 7.53044 9.00039 7.00001C9.00039 6.46957 8.78967 5.96087 8.4146 5.58579C8.03953 5.21072 7.53082 5.00001 7.00039 5.00001C6.46995 5.00001 5.96124 5.21072 5.58617 5.58579C5.2111 5.96087 5.00039 6.46957 5.00039 7.00001C5.00039 7.53044 5.2111 8.03915 5.58617 8.41422C5.96124 8.78929 6.46995 9.00001 7.00039 9.00001Z" fill="#00559F"/>
</svg>
