<svg width="9" height="11" viewBox="0 0 9 11" fill="none" xmlns="http://www.w3.org/2000/svg">
<path fill-rule="evenodd" clip-rule="evenodd" d="M1.5 1.11488V5.07323C1.79145 5.02747 2.12337 5 2.5 5C3.44338 5 4.22057 5.31105 4.82151 5.55156C4.82889 5.55452 4.83625 5.55747 4.84359 5.5604L4.87139 5.57152C5.51527 5.82908 5.96963 6 6.5 6C6.96459 6 7.2883 5.94376 7.5 5.88512V1.92677C7.20855 1.97253 6.87663 2 6.5 2C5.55662 2 4.77944 1.68895 4.1785 1.44844C4.17111 1.44548 4.16375 1.44254 4.15642 1.4396L4.12861 1.42848C3.48471 1.17092 3.03037 1 2.5 1C2.03541 1 1.7117 1.05624 1.5 1.11488ZM0.9375 0.25C1.24999 0.125004 1.74999 0 2.5 0C3.25 0 3.87527 0.250108 4.4992 0.499681L4.52791 0.511165C5.14295 0.757262 5.76153 1 6.5 1C7.10102 1 7.54128 0.919709 7.85282 0.823752C8.00448 0.777036 8.16932 0.805095 8.29699 0.899359C8.42466 0.993624 8.5 1.1429 8.5 1.3016V6.23097C8.5 6.42097 8.39231 6.59455 8.22208 6.67895C8.17541 6.70208 8.12236 6.72606 8.0625 6.75C7.75001 6.875 7.25001 7 6.5 7C5.75 7 5.12473 6.74989 4.50079 6.50032L4.47212 6.48884C3.85707 6.24275 3.23847 6 2.5 6C1.89898 6 1.45872 6.08029 1.14718 6.17625C0.995516 6.22296 0.830677 6.1949 0.703008 6.10064C0.575339 6.00638 0.5 5.8571 0.5 5.6984V0.769026C0.5 0.579027 0.607688 0.405445 0.777917 0.321054C0.824589 0.297916 0.87764 0.273944 0.9375 0.25Z" fill="#5E6164"/>
<path fill-rule="evenodd" clip-rule="evenodd" d="M1 4C1.27614 4 1.5 4.22386 1.5 4.5V10C1.5 10.2761 1.27614 10.5 1 10.5C0.723858 10.5 0.5 10.2761 0.5 10V4.5C0.5 4.22386 0.723858 4 1 4Z" fill="#5E6164"/>
</svg>
