<svg width="36" height="36" viewBox="0 0 36 36" fill="none" xmlns="http://www.w3.org/2000/svg">
<path d="M0 18C0 8.05888 8.05888 0 18 0C27.9411 0 36 8.05888 36 18C36 27.9411 27.9411 36 18 36C8.05888 36 0 27.9411 0 18Z" fill="#2E82BC"/>
<path d="M12.9071 10.0822L25.5871 17.4793C25.678 17.5325 25.7534 17.6086 25.8057 17.6999C25.8581 17.7912 25.8857 17.8947 25.8857 18C25.8857 18.1053 25.8581 18.2088 25.8057 18.3001C25.7534 18.3914 25.678 18.4675 25.5871 18.5207L12.9071 25.9178C12.8152 25.9714 12.7108 25.9997 12.6045 26C12.4981 26.0003 12.3936 25.9724 12.3014 25.9192C12.2093 25.866 12.1329 25.7895 12.0799 25.6972C12.0269 25.605 11.9992 25.5004 11.9997 25.3941V10.6035C11.9996 10.4974 12.0276 10.3931 12.0808 10.3012C12.134 10.2093 12.2104 10.1331 12.3025 10.0802C12.3945 10.0273 12.4989 9.99964 12.6051 10C12.7112 10.0004 12.8154 10.0287 12.9071 10.0822Z" fill="white"/>
</svg>
