<svg width="10" height="11" viewBox="0 0 10 11" fill="none" xmlns="http://www.w3.org/2000/svg">
<path d="M6.5 0.5H3.5V1.5H6.5V0.5ZM4.5 7H5.5V4H4.5V7ZM8.5125 3.6925L9.225 2.98C9.01 2.7225 8.775 2.4875 8.5175 2.2725L7.805 2.985C7.0375 2.37 6.06 2 4.9975 2C2.51 2 0.5 4.015 0.5 6.5C0.5 8.985 2.51 11 4.9975 11C7.485 11 9.5 8.985 9.5 6.5C9.5 5.4375 9.13 4.4625 8.5125 3.6925ZM5 10C3.0675 10 1.5 8.4325 1.5 6.5C1.5 4.5675 3.0675 3 5 3C6.9325 3 8.5 4.5675 8.5 6.5C8.5 8.4325 6.9325 10 5 10Z" fill="#5E6164"/>
</svg>
