<svg width="13" height="12" viewBox="0 0 13 12" fill="none" xmlns="http://www.w3.org/2000/svg">
<mask id="path-1-outside-1" maskUnits="userSpaceOnUse" x="0" y="-0.25" width="13" height="13" fill="black">
<rect fill="white" y="-0.25" width="13" height="13"/>
<path fill-rule="evenodd" clip-rule="evenodd" d="M3.25 1.5L3.25 4.93934L8.5 10.1893L11.9393 6.75L6.68934 1.5L3.25 1.5ZM2.5 1.5C2.5 1.08579 2.83579 0.75 3.25 0.75H6.68934C6.88825 0.75 7.07902 0.829018 7.21967 0.96967L12.4697 6.21967C12.7626 6.51256 12.7626 6.98744 12.4697 7.28033L9.03033 10.7197C8.73744 11.0126 8.26256 11.0126 7.96967 10.7197L2.71967 5.46967C2.57902 5.32902 2.5 5.13825 2.5 4.93934V1.5Z"/>
<path fill-rule="evenodd" clip-rule="evenodd" d="M5.125 3.75C5.33211 3.75 5.5 3.58211 5.5 3.375C5.5 3.16789 5.33211 3 5.125 3C4.91789 3 4.75 3.16789 4.75 3.375C4.75 3.58211 4.91789 3.75 5.125 3.75ZM5.125 4.5C5.74632 4.5 6.25 3.99632 6.25 3.375C6.25 2.75368 5.74632 2.25 5.125 2.25C4.50368 2.25 4 2.75368 4 3.375C4 3.99632 4.50368 4.5 5.125 4.5Z"/>
<path d="M1.75 5.31434C1.75 5.51325 1.82902 5.70402 1.96967 5.84467L7.5625 11.4375L7.53033 11.4697C7.23744 11.7626 6.76256 11.7626 6.46967 11.4697L1.21967 6.21967C1.07902 6.07902 1 5.88825 1 5.68934V2.25C1 1.83579 1.33579 1.5 1.75 1.5V5.31434Z"/>
</mask>
<path fill-rule="evenodd" clip-rule="evenodd" d="M3.25 1.5L3.25 4.93934L8.5 10.1893L11.9393 6.75L6.68934 1.5L3.25 1.5ZM2.5 1.5C2.5 1.08579 2.83579 0.75 3.25 0.75H6.68934C6.88825 0.75 7.07902 0.829018 7.21967 0.96967L12.4697 6.21967C12.7626 6.51256 12.7626 6.98744 12.4697 7.28033L9.03033 10.7197C8.73744 11.0126 8.26256 11.0126 7.96967 10.7197L2.71967 5.46967C2.57902 5.32902 2.5 5.13825 2.5 4.93934V1.5Z" fill="#5E6164"/>
<path fill-rule="evenodd" clip-rule="evenodd" d="M5.125 3.75C5.33211 3.75 5.5 3.58211 5.5 3.375C5.5 3.16789 5.33211 3 5.125 3C4.91789 3 4.75 3.16789 4.75 3.375C4.75 3.58211 4.91789 3.75 5.125 3.75ZM5.125 4.5C5.74632 4.5 6.25 3.99632 6.25 3.375C6.25 2.75368 5.74632 2.25 5.125 2.25C4.50368 2.25 4 2.75368 4 3.375C4 3.99632 4.50368 4.5 5.125 4.5Z" fill="#5E6164"/>
<path d="M1.75 5.31434C1.75 5.51325 1.82902 5.70402 1.96967 5.84467L7.5625 11.4375L7.53033 11.4697C7.23744 11.7626 6.76256 11.7626 6.46967 11.4697L1.21967 6.21967C1.07902 6.07902 1 5.88825 1 5.68934V2.25C1 1.83579 1.33579 1.5 1.75 1.5V5.31434Z" fill="#5E6164"/>
<path d="M3.25 4.93934H3.15C3.15 4.96586 3.16054 4.9913 3.17929 5.01005L3.25 4.93934ZM3.25 1.5V1.4C3.19477 1.4 3.15 1.44477 3.15 1.5L3.25 1.5ZM8.5 10.1893L8.42929 10.2601C8.44804 10.2788 8.47348 10.2893 8.5 10.2893C8.52652 10.2893 8.55196 10.2788 8.57071 10.2601L8.5 10.1893ZM11.9393 6.75L12.0101 6.82071C12.0491 6.78166 12.0491 6.71834 12.0101 6.67929L11.9393 6.75ZM6.68934 1.5L6.76005 1.42929C6.7413 1.41054 6.71586 1.4 6.68934 1.4V1.5ZM7.21967 0.96967L7.29038 0.898959L7.29038 0.898959L7.21967 0.96967ZM12.4697 6.21967L12.5404 6.14896L12.4697 6.21967ZM2.71967 5.46967L2.79038 5.39896L2.71967 5.46967ZM1.96967 5.84467L2.04038 5.77396L1.96967 5.84467ZM7.5625 11.4375L7.63321 11.5082C7.67226 11.4692 7.67226 11.4058 7.63321 11.3668L7.5625 11.4375ZM1.21967 6.21967L1.29038 6.14896H1.29038L1.21967 6.21967ZM1.75 1.5H1.85C1.85 1.44477 1.80523 1.4 1.75 1.4V1.5ZM3.35 4.93934L3.35 1.5L3.15 1.5L3.15 4.93934H3.35ZM8.57071 10.1186L3.32071 4.86863L3.17929 5.01005L8.42929 10.2601L8.57071 10.1186ZM11.8686 6.67929L8.42929 10.1186L8.57071 10.2601L12.0101 6.82071L11.8686 6.67929ZM6.61863 1.57071L11.8686 6.82071L12.0101 6.67929L6.76005 1.42929L6.61863 1.57071ZM3.25 1.6L6.68934 1.6V1.4L3.25 1.4V1.6ZM3.25 0.65C2.78056 0.65 2.4 1.03056 2.4 1.5H2.6C2.6 1.14102 2.89102 0.85 3.25 0.85V0.65ZM6.68934 0.65H3.25V0.85H6.68934V0.65ZM7.29038 0.898959C7.13098 0.739553 6.91477 0.65 6.68934 0.65V0.85C6.86173 0.85 7.02706 0.918482 7.14896 1.04038L7.29038 0.898959ZM12.5404 6.14896L7.29038 0.898959L7.14896 1.04038L12.399 6.29038L12.5404 6.14896ZM12.5404 7.35104C12.8723 7.0191 12.8723 6.48091 12.5404 6.14896L12.399 6.29038C12.6528 6.54422 12.6528 6.95578 12.399 7.20962L12.5404 7.35104ZM9.10104 10.7904L12.5404 7.35104L12.399 7.20962L8.95962 10.649L9.10104 10.7904ZM7.89896 10.7904C8.23091 11.1223 8.7691 11.1223 9.10104 10.7904L8.95962 10.649C8.70578 10.9028 8.29422 10.9028 8.04038 10.649L7.89896 10.7904ZM2.64896 5.54038L7.89896 10.7904L8.04038 10.649L2.79038 5.39896L2.64896 5.54038ZM2.4 4.93934C2.4 5.16477 2.48955 5.38097 2.64896 5.54038L2.79038 5.39896C2.66848 5.27706 2.6 5.11173 2.6 4.93934H2.4ZM2.4 1.5V4.93934H2.6V1.5H2.4ZM5.4 3.375C5.4 3.52688 5.27688 3.65 5.125 3.65V3.85C5.38734 3.85 5.6 3.63734 5.6 3.375H5.4ZM5.125 3.1C5.27688 3.1 5.4 3.22312 5.4 3.375H5.6C5.6 3.11266 5.38734 2.9 5.125 2.9V3.1ZM4.85 3.375C4.85 3.22312 4.97312 3.1 5.125 3.1V2.9C4.86267 2.9 4.65 3.11266 4.65 3.375H4.85ZM5.125 3.65C4.97312 3.65 4.85 3.52688 4.85 3.375H4.65C4.65 3.63734 4.86266 3.85 5.125 3.85V3.65ZM6.15 3.375C6.15 3.94109 5.69109 4.4 5.125 4.4V4.6C5.80155 4.6 6.35 4.05155 6.35 3.375H6.15ZM5.125 2.35C5.69109 2.35 6.15 2.80891 6.15 3.375H6.35C6.35 2.69845 5.80155 2.15 5.125 2.15V2.35ZM4.1 3.375C4.1 2.80891 4.55891 2.35 5.125 2.35V2.15C4.44845 2.15 3.9 2.69845 3.9 3.375H4.1ZM5.125 4.4C4.55891 4.4 4.1 3.94109 4.1 3.375H3.9C3.9 4.05155 4.44845 4.6 5.125 4.6V4.4ZM1.65 5.31434C1.65 5.53977 1.73955 5.75597 1.89896 5.91538L2.04038 5.77396C1.91848 5.65206 1.85 5.48673 1.85 5.31434H1.65ZM1.89896 5.91538L7.49179 11.5082L7.63321 11.3668L2.04038 5.77396L1.89896 5.91538ZM7.60104 11.5404L7.63321 11.5082L7.49179 11.3668L7.45962 11.399L7.60104 11.5404ZM6.39896 11.5404C6.73091 11.8723 7.2691 11.8723 7.60104 11.5404L7.45962 11.399C7.20578 11.6528 6.79422 11.6528 6.54038 11.399L6.39896 11.5404ZM1.14896 6.29038L6.39896 11.5404L6.54038 11.399L1.29038 6.14896L1.14896 6.29038ZM0.9 5.68934C0.9 5.91477 0.989553 6.13097 1.14896 6.29038L1.29038 6.14896C1.16848 6.02706 1.1 5.86173 1.1 5.68934H0.9ZM0.9 2.25V5.68934H1.1V2.25H0.9ZM1.75 1.4C1.28056 1.4 0.9 1.78056 0.9 2.25H1.1C1.1 1.89102 1.39101 1.6 1.75 1.6V1.4ZM1.65 1.5V5.31434H1.85V1.5H1.65Z" fill="#5E6164" mask="url(#path-1-outside-1)"/>
</svg>
