<svg width="12" height="13" viewBox="0 0 12 13" fill="none" xmlns="http://www.w3.org/2000/svg">
<path fill-rule="evenodd" clip-rule="evenodd" d="M3.55542 1.78685V8.41958H0.762695V1.78685C0.762695 1.69033 0.840892 1.6123 0.937241 1.6123H3.38088C3.47723 1.6123 3.55542 1.69033 3.55542 1.78685ZM2.15906 3.5323C2.06271 3.5323 1.98451 3.61033 1.98451 3.70685V5.80139C1.98451 5.89792 2.06271 5.97594 2.15906 5.97594C2.25541 5.97594 2.3336 5.89792 2.3336 5.80139V3.70685C2.3336 3.61033 2.25541 3.5323 2.15906 3.5323Z" fill="#18558E"/>
<path d="M0.762695 8.76904V11.5618C0.762695 11.6583 0.840892 11.7363 0.937241 11.7363H3.38088C3.47723 11.7363 3.55542 11.6583 3.55542 11.5618V8.76904H0.762695Z" fill="#18558E"/>
<path fill-rule="evenodd" clip-rule="evenodd" d="M6.87183 1.78685V8.41958H4.0791V1.78685C4.0791 1.69033 4.1573 1.6123 4.25365 1.6123H6.69728C6.79363 1.6123 6.87183 1.69033 6.87183 1.78685ZM5.47546 3.5323C5.37912 3.5323 5.30092 3.61033 5.30092 3.70685V5.80139C5.30092 5.89792 5.37912 5.97594 5.47546 5.97594C5.57181 5.97594 5.65001 5.89792 5.65001 5.80139V3.70685C5.65001 3.61033 5.57181 3.5323 5.47546 3.5323Z" fill="#18558E"/>
<path d="M4.0791 8.76904V11.5618C4.0791 11.6583 4.1573 11.7363 4.25365 11.7363H6.69728C6.79363 11.7363 6.87183 11.6583 6.87183 11.5618V8.76904H4.0791Z" fill="#18558E"/>
<path fill-rule="evenodd" clip-rule="evenodd" d="M9.26773 1.4678L10.5267 7.97992L7.7848 8.51019L6.52563 1.99789C6.50747 1.90329 6.56926 1.81165 6.66387 1.7935L9.06317 1.32956C9.10837 1.32031 9.15568 1.33026 9.19408 1.35627C9.23248 1.38227 9.25901 1.42224 9.26773 1.4678ZM8.43253 3.58486C8.41403 3.49008 8.32205 3.42742 8.22797 3.44662C8.13336 3.46477 8.07157 3.55641 8.08973 3.65101L8.48734 5.70751C8.50357 5.79112 8.57653 5.84907 8.65857 5.84907C8.66957 5.84907 8.68074 5.84802 8.69191 5.84575C8.78651 5.82742 8.8483 5.73596 8.83015 5.64136L8.43253 3.58486Z" fill="#18558E"/>
<path d="M7.85156 8.85302L8.38166 11.595C8.39789 11.6784 8.47102 11.7363 8.55289 11.7363C8.56388 11.7363 8.57488 11.7353 8.58622 11.733L10.9855 11.2693C11.0309 11.2605 11.0711 11.234 11.0971 11.1956C11.1231 11.1572 11.1327 11.1102 11.1238 11.0649L10.5937 8.32275L7.85156 8.85302Z" fill="#18558E"/>
</svg>
