<svg width="16" height="17" viewBox="0 0 16 17" fill="none" xmlns="http://www.w3.org/2000/svg">
<path fill-rule="evenodd" clip-rule="evenodd" d="M4 14.5C4.27614 14.5 4.5 14.2761 4.5 14L4.5 3C4.5 2.72386 4.27614 2.5 4 2.5C3.72386 2.5 3.5 2.72386 3.5 3L3.5 14C3.5 14.2761 3.72386 14.5 4 14.5Z" fill="#2E82BC"/>
<path fill-rule="evenodd" clip-rule="evenodd" d="M6.35355 5.35355C6.54882 5.15829 6.54882 4.84171 6.35355 4.64645L4.35355 2.64645C4.15829 2.45118 3.84171 2.45118 3.64645 2.64645L1.64645 4.64645C1.45118 4.84171 1.45118 5.15829 1.64645 5.35355C1.84171 5.54882 2.15829 5.54882 2.35355 5.35355L4 3.70711L5.64645 5.35355C5.84171 5.54882 6.15829 5.54882 6.35355 5.35355Z" fill="#2E82BC"/>
<path d="M9.66406 7.5L10.082 6.12891H11.8633L12.2812 7.5H13.4023L11.6211 2.16797H10.3867L8.59766 7.5H9.66406ZM11 3.1875L11.6523 5.34375H10.3008L10.9531 3.1875H11Z" fill="#2E82BC"/>
<path d="M9.02734 14.5H12.9609V13.6328H10.3164V13.5781L12.8828 9.85938V9.16797H9.09766V10.0352H11.6055V10.0898L9.02734 13.8086V14.5Z" fill="#2E82BC"/>
</svg>
