<svg width="17" height="16" viewBox="0 0 17 16" fill="none" xmlns="http://www.w3.org/2000/svg">
<path fill-rule="evenodd" clip-rule="evenodd" d="M8.74967 1.33333C7.33519 1.33333 5.97863 1.89524 4.97844 2.89543C3.97824 3.89562 3.41634 5.25218 3.41634 6.66667C3.41634 8.73204 4.76017 10.7362 6.23364 12.2915C6.95675 13.0548 7.68212 13.6796 8.22746 14.1139C8.43042 14.2755 8.60769 14.4101 8.74967 14.5151C8.89166 14.4101 9.06893 14.2755 9.27189 14.1139C9.81723 13.6796 10.5426 13.0548 11.2657 12.2915C12.7392 10.7362 14.083 8.73204 14.083 6.66667C14.083 5.25218 13.5211 3.89562 12.5209 2.89543C11.5207 1.89524 10.1642 1.33333 8.74967 1.33333ZM8.74967 15.3333C8.37987 15.888 8.37971 15.8879 8.37951 15.8878L8.37761 15.8865L8.37317 15.8835L8.35789 15.8732C8.34491 15.8644 8.32639 15.8517 8.30271 15.8353C8.25536 15.8025 8.18732 15.7547 8.10154 15.6928C7.93004 15.5689 7.68725 15.3881 7.39689 15.1569C6.81723 14.6954 6.0426 14.0286 5.26571 13.2085C3.73918 11.5972 2.08301 9.26796 2.08301 6.66667C2.08301 4.89856 2.78539 3.20286 4.03563 1.95262C5.28587 0.702379 6.98156 0 8.74967 0C10.5178 0 12.2135 0.702379 13.4637 1.95262C14.714 3.20286 15.4163 4.89856 15.4163 6.66667C15.4163 9.26796 13.7602 11.5972 12.2336 13.2085C11.4567 14.0286 10.6821 14.6954 10.1025 15.1569C9.8121 15.3881 9.56931 15.5689 9.39781 15.6928C9.31203 15.7547 9.24399 15.8025 9.19664 15.8353C9.17296 15.8517 9.15444 15.8644 9.14146 15.8732L9.12618 15.8835L9.12174 15.8865L9.12033 15.8875C9.12014 15.8876 9.11947 15.888 8.74967 15.3333ZM8.74967 15.3333L9.11947 15.888C8.89554 16.0373 8.60345 16.0371 8.37951 15.8878L8.74967 15.3333Z" fill="#8898AA"/>
<path fill-rule="evenodd" clip-rule="evenodd" d="M8.74967 5.33333C8.01329 5.33333 7.41634 5.93029 7.41634 6.66667C7.41634 7.40305 8.01329 8 8.74967 8C9.48605 8 10.083 7.40305 10.083 6.66667C10.083 5.93029 9.48605 5.33333 8.74967 5.33333ZM6.08301 6.66667C6.08301 5.19391 7.27692 4 8.74967 4C10.2224 4 11.4163 5.19391 11.4163 6.66667C11.4163 8.13943 10.2224 9.33333 8.74967 9.33333C7.27692 9.33333 6.08301 8.13943 6.08301 6.66667Z" fill="#8898AA"/>
</svg>
