<svg width="15" height="15" viewBox="0 0 15 15" fill="none" xmlns="http://www.w3.org/2000/svg">
<path d="M8.92872 13.496L7.42472 15L5.92072 13.496C2.96472 12.8133 0.758057 10.1626 0.758057 6.99998C0.758057 3.31998 3.74472 0.333313 7.42472 0.333313C11.1047 0.333313 14.0914 3.31998 14.0914 6.99998C14.0914 10.1626 11.8847 12.8133 8.92872 13.496ZM3.44006 9.27731C4.41872 10.7373 5.88806 11.6666 7.53139 11.6666C9.17406 11.6666 10.6441 10.738 11.6221 9.27731C10.5125 8.24038 9.05002 7.66452 7.53139 7.66665C6.01253 7.66435 4.54973 8.24022 3.44006 9.27731ZM7.42472 6.33331C7.95516 6.33331 8.46386 6.1226 8.83894 5.74753C9.21401 5.37245 9.42472 4.86375 9.42472 4.33331C9.42472 3.80288 9.21401 3.29417 8.83894 2.9191C8.46386 2.54403 7.95516 2.33331 7.42472 2.33331C6.89429 2.33331 6.38558 2.54403 6.01051 2.9191C5.63544 3.29417 5.42472 3.80288 5.42472 4.33331C5.42472 4.86375 5.63544 5.37245 6.01051 5.74753C6.38558 6.1226 6.89429 6.33331 7.42472 6.33331Z" fill="#18558E"/>
</svg>
