<svg width="8" height="3" viewBox="0 0 8 3" fill="none" xmlns="http://www.w3.org/2000/svg">
<path d="M0.953125 2.05859C1.32812 2.05859 1.62109 1.76562 1.62109 1.39062C1.62109 1.01562 1.32812 0.722656 0.953125 0.722656C0.578125 0.722656 0.285156 1.01562 0.285156 1.39062C0.285156 1.76562 0.578125 2.05859 0.953125 2.05859ZM4 2.05859C4.375 2.05859 4.66797 1.76562 4.66797 1.39062C4.66797 1.01562 4.375 0.722656 4 0.722656C3.625 0.722656 3.33203 1.01562 3.33203 1.39062C3.33203 1.76562 3.625 2.05859 4 2.05859ZM7.04688 2.05859C7.42188 2.05859 7.71484 1.76562 7.71484 1.39062C7.71484 1.01562 7.42188 0.722656 7.04688 0.722656C6.67188 0.722656 6.37891 1.01562 6.37891 1.39062C6.37891 1.76562 6.67188 2.05859 7.04688 2.05859Z" fill="#7E858E"/>
</svg>
