<svg width="36" height="36" viewBox="0 0 36 36" fill="none" xmlns="http://www.w3.org/2000/svg">
<path d="M0 18C0 8.05888 8.05888 0 18 0C27.9411 0 36 8.05888 36 18C36 27.9411 27.9411 36 18 36C8.05888 36 0 27.9411 0 18Z" fill="#3AAF85"/>
<path d="M23.9999 24H18.6666V14C18.6666 13.4696 18.8773 12.9609 19.2524 12.5858C19.6274 12.2107 20.1362 12 20.6666 12H23.9999C24.1767 12 24.3463 12.0702 24.4713 12.1953C24.5963 12.3203 24.6666 12.4899 24.6666 12.6667V23.3333C24.6666 23.5101 24.5963 23.6797 24.4713 23.8047C24.3463 23.9298 24.1767 24 23.9999 24ZM17.3333 24H11.9999C11.8231 24 11.6535 23.9298 11.5285 23.8047C11.4035 23.6797 11.3333 23.5101 11.3333 23.3333V12.6667C11.3333 12.4899 11.4035 12.3203 11.5285 12.1953C11.6535 12.0702 11.8231 12 11.9999 12H15.3333C15.8637 12 16.3724 12.2107 16.7475 12.5858C17.1225 12.9609 17.3333 13.4696 17.3333 14V24ZM17.3333 24H18.6666V25.3333H17.3333V24Z" fill="white"/>
</svg>
