<svg width="20" height="17" viewBox="0 0 20 17" fill="none" xmlns="http://www.w3.org/2000/svg">
<path d="M18.6392 6.11353L13.0935 0.567883C12.1482 -0.408906 10.5413 0.284299 10.5413 1.6392V4.15995C6.19297 4.28598 0.96242 5.13674 0.96242 10.5248C0.96242 12.825 2.15978 14.7471 4.01883 15.9759C5.18467 16.7637 6.72863 15.6609 6.2875 14.2744C5.53127 11.8167 5.90939 10.5248 10.5413 10.2412V12.699C10.5413 14.0539 12.1482 14.7471 13.0935 13.7703L18.6392 8.22465C19.2378 7.65748 19.2378 6.68069 18.6392 6.11353ZM12.0537 12.699V8.69729C6.85467 8.7288 3.29411 9.7371 4.86958 14.7156C3.73524 13.9594 2.47487 12.636 2.47487 10.5248C2.47487 6.019 7.51636 5.6724 12.0537 5.6724V1.60769L17.5993 7.15333L12.0537 12.699Z" fill="#959595"/>
</svg>
