<svg width="13" height="13" viewBox="0 0 13 13" fill="none" xmlns="http://www.w3.org/2000/svg">
<path d="M6.66895 0.483154L6.12207 1.00269C5.98535 1.1394 5.98535 1.35815 6.12207 1.46753L10.3604 5.70581H1.03613C0.844727 5.70581 0.708008 5.86987 0.708008 6.03394V6.79956C0.708008 6.99097 0.844727 7.12769 1.03613 7.12769H10.3604L6.12207 11.3933C5.98535 11.5027 5.98535 11.7214 6.12207 11.8582L6.66895 12.3777C6.77832 12.5144 6.99707 12.5144 7.13379 12.3777L12.8486 6.66284C12.9854 6.52612 12.9854 6.33472 12.8486 6.198L7.13379 0.483154C6.99707 0.346436 6.77832 0.346436 6.66895 0.483154Z" fill="#00559F"/>
</svg>
