<svg width="36" height="36" viewBox="0 0 36 36" fill="none" xmlns="http://www.w3.org/2000/svg">
<path d="M0 18C0 8.05888 8.05888 0 18 0C27.9411 0 36 8.05888 36 18C36 27.9411 27.9411 36 18 36C8.05888 36 0 27.9411 0 18Z" fill="#F2994A"/>
<path d="M17.5789 10C13.3937 10 10 13.3937 10 17.5789V23.4737C10 24.8674 11.1326 26 12.5263 26H15.0526V19.2632H11.6842V17.5789C11.6842 14.3242 14.3242 11.6842 17.5789 11.6842C20.8337 11.6842 23.4737 14.3242 23.4737 17.5789V19.2632H20.1053V26H22.6316C24.0253 26 25.1579 24.8674 25.1579 23.4737V17.5789C25.1579 13.3937 21.7642 10 17.5789 10Z" fill="white"/>
</svg>
