<svg width="16" height="16" viewBox="0 0 16 16" fill="none" xmlns="http://www.w3.org/2000/svg">
<path d="M14.5576 13.2407L11.249 9.93213C11.167 9.87744 11.085 9.82275 11.0029 9.82275H10.6475C11.4951 8.83838 12.042 7.52588 12.042 6.104C12.042 2.98682 9.47168 0.416504 6.35449 0.416504C3.20996 0.416504 0.666992 2.98682 0.666992 6.104C0.666992 9.24854 3.20996 11.7915 6.35449 11.7915C7.77637 11.7915 9.06152 11.272 10.0732 10.4243V10.7798C10.0732 10.8618 10.1006 10.9438 10.1553 11.0259L13.4639 14.3345C13.6006 14.4712 13.8193 14.4712 13.9287 14.3345L14.5576 13.7056C14.6943 13.5962 14.6943 13.3774 14.5576 13.2407ZM6.35449 10.479C3.9209 10.479 1.97949 8.5376 1.97949 6.104C1.97949 3.69775 3.9209 1.729 6.35449 1.729C8.76074 1.729 10.7295 3.69775 10.7295 6.104C10.7295 8.5376 8.76074 10.479 6.35449 10.479Z" fill="white"/>
</svg>
