<svg width="17" height="13" viewBox="0 0 17 13" fill="none" xmlns="http://www.w3.org/2000/svg">
<path d="M15.417 0.166504H15.167V0.791504C15.167 1.01025 14.9795 1.1665 14.792 1.1665H13.542C13.3232 1.1665 13.167 1.01025 13.167 0.791504V0.166504H3.16699V0.791504C3.16699 1.01025 2.97949 1.1665 2.79199 1.1665H1.54199C1.32324 1.1665 1.16699 1.01025 1.16699 0.791504V0.166504H0.916992C0.479492 0.166504 0.166992 0.510254 0.166992 0.916504V11.4165C0.166992 11.854 0.479492 12.1665 0.916992 12.1665H1.16699V11.5415C1.16699 11.354 1.32324 11.1665 1.54199 11.1665H2.79199C2.97949 11.1665 3.16699 11.354 3.16699 11.5415V12.1665H13.167V11.5415C13.167 11.354 13.3232 11.1665 13.542 11.1665H14.792C14.9795 11.1665 15.167 11.354 15.167 11.5415V12.1665H15.417C15.8232 12.1665 16.167 11.854 16.167 11.4165V0.916504C16.167 0.510254 15.8232 0.166504 15.417 0.166504ZM3.16699 9.7915C3.16699 10.0103 2.97949 10.1665 2.79199 10.1665H1.54199C1.32324 10.1665 1.16699 10.0103 1.16699 9.7915V8.5415C1.16699 8.354 1.32324 8.1665 1.54199 8.1665H2.79199C2.97949 8.1665 3.16699 8.354 3.16699 8.5415V9.7915ZM3.16699 6.7915C3.16699 7.01025 2.97949 7.1665 2.79199 7.1665H1.54199C1.32324 7.1665 1.16699 7.01025 1.16699 6.7915V5.5415C1.16699 5.354 1.32324 5.1665 1.54199 5.1665H2.79199C2.97949 5.1665 3.16699 5.354 3.16699 5.5415V6.7915ZM3.16699 3.7915C3.16699 4.01025 2.97949 4.1665 2.79199 4.1665H1.54199C1.32324 4.1665 1.16699 4.01025 1.16699 3.7915V2.5415C1.16699 2.354 1.32324 2.1665 1.54199 2.1665H2.79199C2.97949 2.1665 3.16699 2.354 3.16699 2.5415V3.7915ZM12.167 10.2915C12.167 10.5103 11.9795 10.6665 11.792 10.6665H4.54199C4.32324 10.6665 4.16699 10.5103 4.16699 10.2915V7.2915C4.16699 7.104 4.32324 6.9165 4.54199 6.9165H11.792C11.9795 6.9165 12.167 7.104 12.167 7.2915V10.2915ZM12.167 5.0415C12.167 5.26025 11.9795 5.4165 11.792 5.4165H4.54199C4.32324 5.4165 4.16699 5.26025 4.16699 5.0415V2.0415C4.16699 1.854 4.32324 1.6665 4.54199 1.6665H11.792C11.9795 1.6665 12.167 1.854 12.167 2.0415V5.0415ZM15.167 9.7915C15.167 10.0103 14.9795 10.1665 14.792 10.1665H13.542C13.3232 10.1665 13.167 10.0103 13.167 9.7915V8.5415C13.167 8.354 13.3232 8.1665 13.542 8.1665H14.792C14.9795 8.1665 15.167 8.354 15.167 8.5415V9.7915ZM15.167 6.7915C15.167 7.01025 14.9795 7.1665 14.792 7.1665H13.542C13.3232 7.1665 13.167 7.01025 13.167 6.7915V5.5415C13.167 5.354 13.3232 5.1665 13.542 5.1665H14.792C14.9795 5.1665 15.167 5.354 15.167 5.5415V6.7915ZM15.167 3.7915C15.167 4.01025 14.9795 4.1665 14.792 4.1665H13.542C13.3232 4.1665 13.167 4.01025 13.167 3.7915V2.5415C13.167 2.354 13.3232 2.1665 13.542 2.1665H14.792C14.9795 2.1665 15.167 2.354 15.167 2.5415V3.7915Z" fill="#8898AA"/>
</svg>
