<svg width="10" height="10" viewBox="0 0 10 10" fill="none" xmlns="http://www.w3.org/2000/svg">
<path d="M4.9975 0C2.235 0 0 2.2375 0 5C0 7.7625 2.235 10 4.9975 10C7.76 10 10 7.7625 10 5C10 2.2375 7.76 0 4.9975 0ZM8.46 3H6.985C6.8225 2.375 6.595 1.775 6.295 1.22C7.215 1.535 7.98 2.1725 8.46 3ZM5 1.0175C5.4175 1.6175 5.7425 2.285 5.955 3H4.045C4.2575 2.285 4.5825 1.6175 5 1.0175ZM1.13 6C1.0475 5.68 1 5.345 1 5C1 4.655 1.0475 4.32 1.13 4H2.8175C2.7775 4.3275 2.75 4.66 2.75 5C2.75 5.34 2.7775 5.6725 2.82 6H1.13ZM1.5375 7H3.0125C3.175 7.625 3.4025 8.225 3.7025 8.7825C2.7825 8.4675 2.0175 7.8275 1.5375 7ZM3.0125 3H1.5375C2.0175 2.1725 2.7825 1.5325 3.7025 1.2175C3.4025 1.775 3.175 2.375 3.0125 3ZM5 8.9825C4.585 8.3825 4.26 7.715 4.045 7H5.955C5.74 7.715 5.415 8.3825 5 8.9825ZM6.17 6H3.83C3.7825 5.6725 3.75 5.34 3.75 5C3.75 4.66 3.7825 4.3275 3.83 4H6.17C6.2175 4.3275 6.25 4.66 6.25 5C6.25 5.34 6.2175 5.6725 6.17 6ZM6.2975 8.78C6.5975 8.2225 6.825 7.625 6.9875 7H8.4625C7.98 7.8275 7.215 8.465 6.2975 8.78ZM7.18 6C7.22 5.6725 7.25 5.34 7.25 5C7.25 4.66 7.2225 4.3275 7.18 4H8.8675C8.95 4.32 9 4.655 9 5C9 5.345 8.9525 5.68 8.8675 6H7.18Z" fill="#5E6164"/>
</svg>
