<svg width="16" height="17" viewBox="0 0 16 17" fill="none" xmlns="http://www.w3.org/2000/svg">
<path fill-rule="evenodd" clip-rule="evenodd" d="M4 2.5C4.27614 2.5 4.5 2.72386 4.5 3L4.5 14C4.5 14.2761 4.27614 14.5 4 14.5C3.72386 14.5 3.5 14.2761 3.5 14L3.5 3C3.5 2.72386 3.72386 2.5 4 2.5Z" fill="#2E82BC"/>
<path fill-rule="evenodd" clip-rule="evenodd" d="M6.35355 11.6464C6.54882 11.8417 6.54882 12.1583 6.35355 12.3536L4.35355 14.3536C4.15829 14.5488 3.84171 14.5488 3.64645 14.3536L1.64645 12.3536C1.45118 12.1583 1.45118 11.8417 1.64645 11.6464C1.84171 11.4512 2.15829 11.4512 2.35355 11.6464L4 13.2929L5.64645 11.6464C5.84171 11.4512 6.15829 11.4512 6.35355 11.6464Z" fill="#2E82BC"/>
<path d="M9.02734 7.5H12.9609V6.63281H10.3164V6.57812L12.8828 2.85938V2.16797H9.09766V3.03516H11.6055V3.08984L9.02734 6.80859V7.5Z" fill="#2E82BC"/>
<path d="M9.66406 14.5L10.082 13.1289H11.8633L12.2812 14.5H13.4023L11.6211 9.16797H10.3867L8.59766 14.5H9.66406ZM11 10.1875L11.6523 12.3438H10.3008L10.9531 10.1875H11Z" fill="#2E82BC"/>
</svg>
