<svg width="15" height="15" viewBox="0 0 15 15" fill="none" xmlns="http://www.w3.org/2000/svg">
<path fill-rule="evenodd" clip-rule="evenodd" d="M14.8332 13.4261L11.0314 9.62433C12.8361 7.08797 12.3959 3.59179 10.0189 1.58187C7.64188 -0.428042 4.12117 -0.280986 1.92003 1.92015C-0.281108 4.12129 -0.428164 7.642 1.58175 10.019C3.59166 12.3961 7.08785 12.8362 9.62421 11.0315L13.426 14.8333L14.8332 13.4261ZM1.52993 6.17206C1.52993 3.60837 3.60821 1.53008 6.17191 1.53008C8.7356 1.53008 10.8139 3.60837 10.8139 6.17206C10.8139 8.73575 8.7356 10.814 6.17191 10.814C3.60942 10.8111 1.53285 8.73454 1.52993 6.17206Z" fill="#2E82BC"/>
</svg>
