<svg width="13" height="12" viewBox="0 0 13 12" fill="none" xmlns="http://www.w3.org/2000/svg">
<path d="M12.0708 5.04687C12.0708 5.14509 12.0128 5.25223 11.8967 5.3683L9.4659 7.73884L10.0418 11.0871C10.0463 11.1183 10.0485 11.1629 10.0485 11.221C10.0485 11.3147 10.0239 11.3929 9.97483 11.4554C9.93018 11.5223 9.86322 11.5558 9.77393 11.5558C9.68911 11.5558 9.59983 11.529 9.50608 11.4754L6.49938 9.89509L3.49268 11.4754C3.39447 11.529 3.30518 11.5558 3.22483 11.5558C3.13108 11.5558 3.05965 11.5223 3.01054 11.4554C2.9659 11.3929 2.94358 11.3147 2.94358 11.221C2.94358 11.1942 2.94804 11.1496 2.95697 11.0871L3.53286 7.73884L1.09536 5.3683C0.983755 5.24777 0.927951 5.14062 0.927951 5.04687C0.927951 4.8817 1.05295 4.77902 1.30295 4.73884L4.66456 4.25L6.17126 1.20312C6.25608 1.02009 6.36545 0.928571 6.49938 0.928571C6.63331 0.928571 6.74268 1.02009 6.82751 1.20312L8.3342 4.25L11.6958 4.73884C11.9458 4.77902 12.0708 4.8817 12.0708 5.04687Z" fill="#F2C94C"/>
</svg>
