<svg width="10" height="12" viewBox="0 0 10 12" fill="none" xmlns="http://www.w3.org/2000/svg">
<path fill-rule="evenodd" clip-rule="evenodd" d="M2.08301 1.33329C1.9283 1.33329 1.77992 1.39475 1.67053 1.50415C1.56113 1.61354 1.49967 1.76192 1.49967 1.91663V10.1164L4.66062 7.85861C4.86344 7.71374 5.13591 7.71374 5.33873 7.85861L8.49967 10.1164V1.91663C8.49967 1.76192 8.43822 1.61354 8.32882 1.50415C8.21942 1.39475 8.07105 1.33329 7.91634 1.33329H2.08301ZM0.845571 0.679189C1.17376 0.351 1.61888 0.166626 2.08301 0.166626H7.91634C8.38047 0.166626 8.82559 0.351 9.15378 0.679189C9.48197 1.00738 9.66634 1.4525 9.66634 1.91663V11.25C9.66634 11.4685 9.54422 11.6687 9.34993 11.7686C9.15564 11.8686 8.92176 11.8516 8.74395 11.7246L4.99967 9.05015L1.2554 11.7246C1.07759 11.8516 0.84371 11.8686 0.649419 11.7686C0.455127 11.6687 0.333008 11.4685 0.333008 11.25V1.91663C0.333008 1.4525 0.517382 1.00738 0.845571 0.679189Z" fill="#00559F"/>
</svg>
