<svg width="16" height="16" viewBox="0 0 16 16" fill="none" xmlns="http://www.w3.org/2000/svg">
<path d="M5.33333 6.66683H3.33333V4.66683H2V6.66683H0V8.00016H2V10.0002H3.33333V8.00016H5.33333V6.66683ZM12 7.3335C13.1033 7.3335 13.9933 6.43683 13.9933 5.3335C13.9933 4.23016 13.1033 3.3335 12 3.3335C11.7867 3.3335 11.5833 3.36683 11.39 3.43016C11.7667 3.97016 11.9933 4.62683 11.9933 5.3335C11.9933 6.04016 11.7667 6.69683 11.39 7.23683C11.5833 7.30016 11.7867 7.3335 12 7.3335ZM8.66667 7.3335C9.77 7.3335 10.66 6.43683 10.66 5.3335C10.66 4.23016 9.77 3.3335 8.66667 3.3335C7.56333 3.3335 6.66667 4.23016 6.66667 5.3335C6.66667 6.43683 7.56333 7.3335 8.66667 7.3335ZM13.08 8.7735C13.6333 9.25683 14 9.88016 14 10.6668V12.0002H16V10.6668C16 9.64016 14.4167 9.01016 13.08 8.7735ZM8.66667 8.66683C7.33333 8.66683 4.66667 9.3335 4.66667 10.6668V12.0002H12.6667V10.6668C12.6667 9.3335 10 8.66683 8.66667 8.66683Z" fill="#00559F"/>
</svg>
