<svg width="12" height="12" viewBox="0 0 12 12" fill="none" xmlns="http://www.w3.org/2000/svg">
<path d="M3.75 3.96875C3.75 4.13281 3.86719 4.25 4.03125 4.25H4.96875C5.10938 4.25 5.25 4.13281 5.25 3.96875V3.03125C5.25 2.89062 5.10938 2.75 4.96875 2.75H4.03125C3.86719 2.75 3.75 2.89062 3.75 3.03125V3.96875ZM7.03125 4.25H7.96875C8.10938 4.25 8.25 4.13281 8.25 3.96875V3.03125C8.25 2.89062 8.10938 2.75 7.96875 2.75H7.03125C6.86719 2.75 6.75 2.89062 6.75 3.03125V3.96875C6.75 4.13281 6.86719 4.25 7.03125 4.25ZM4.03125 6.5H4.96875C5.10938 6.5 5.25 6.38281 5.25 6.21875V5.28125C5.25 5.14062 5.10938 5 4.96875 5H4.03125C3.86719 5 3.75 5.14062 3.75 5.28125V6.21875C3.75 6.38281 3.86719 6.5 4.03125 6.5ZM7.03125 6.5H7.96875C8.10938 6.5 8.25 6.38281 8.25 6.21875V5.28125C8.25 5.14062 8.10938 5 7.96875 5H7.03125C6.86719 5 6.75 5.14062 6.75 5.28125V6.21875C6.75 6.38281 6.86719 6.5 7.03125 6.5ZM5.25 8.46875V7.53125C5.25 7.39062 5.10938 7.25 4.96875 7.25H4.03125C3.86719 7.25 3.75 7.39062 3.75 7.53125V8.46875C3.75 8.63281 3.86719 8.75 4.03125 8.75H4.96875C5.10938 8.75 5.25 8.63281 5.25 8.46875ZM7.03125 8.75H7.96875C8.10938 8.75 8.25 8.63281 8.25 8.46875V7.53125C8.25 7.39062 8.10938 7.25 7.96875 7.25H7.03125C6.86719 7.25 6.75 7.39062 6.75 7.53125V8.46875C6.75 8.63281 6.86719 8.75 7.03125 8.75ZM11.25 11.6562C11.25 11.5156 11.1094 11.375 10.9688 11.375H10.5V1.0625C10.5 0.757812 10.2422 0.5 9.9375 0.5H2.03906C1.73438 0.5 1.47656 0.757812 1.47656 1.0625V11.375H1.03125C0.867188 11.375 0.75 11.5156 0.75 11.6562V12.5H11.25V11.6562ZM2.60156 11.3516L2.625 1.625L9.375 1.64844V11.3516H6.75V9.78125C6.75 9.64062 6.60938 9.5 6.46875 9.5H5.53125C5.36719 9.5 5.25 9.64062 5.25 9.78125V11.3516H2.60156Z" fill="#5E6164"/>
</svg>
