<svg width="12" height="12" viewBox="0 0 12 12" fill="none" xmlns="http://www.w3.org/2000/svg">
<path fill-rule="evenodd" clip-rule="evenodd" d="M5.7765 0.552786C5.91727 0.482405 6.08295 0.482405 6.22372 0.552786L11.2237 3.05279C11.3931 3.13748 11.5001 3.31061 11.5001 3.5C11.5001 3.68939 11.3931 3.86252 11.2237 3.94721L6.22372 6.44721C6.08295 6.5176 5.91727 6.5176 5.7765 6.44721L0.776503 3.94721C0.607111 3.86252 0.50011 3.68939 0.50011 3.5C0.50011 3.31061 0.607111 3.13748 0.776503 3.05279L5.7765 0.552786ZM2.11814 3.5L6.00011 5.44098L9.88208 3.5L6.00011 1.55902L2.11814 3.5Z" fill="#5E6164"/>
<path fill-rule="evenodd" clip-rule="evenodd" d="M0.552896 8.27639C0.676391 8.0294 0.976727 7.92929 1.22372 8.05279L6.00011 10.441L10.7765 8.05279C11.0235 7.92929 11.3238 8.0294 11.4473 8.27639C11.5708 8.52338 11.4707 8.82372 11.2237 8.94721L6.22372 11.4472C6.08295 11.5176 5.91727 11.5176 5.7765 11.4472L0.776503 8.94721C0.529513 8.82372 0.429401 8.52338 0.552896 8.27639Z" fill="#5E6164"/>
<path fill-rule="evenodd" clip-rule="evenodd" d="M0.552896 5.77639C0.676391 5.5294 0.976727 5.42929 1.22372 5.55279L6.00011 7.94098L10.7765 5.55279C11.0235 5.42929 11.3238 5.5294 11.4473 5.77639C11.5708 6.02338 11.4707 6.32372 11.2237 6.44721L6.22372 8.94721C6.08295 9.0176 5.91727 9.0176 5.7765 8.94721L0.776503 6.44721C0.529513 6.32372 0.429401 6.02338 0.552896 5.77639Z" fill="#5E6164"/>
</svg>
