<svg width="15" height="15" viewBox="0 0 15 15" fill="none" xmlns="http://www.w3.org/2000/svg">
<path fill-rule="evenodd" clip-rule="evenodd" d="M0.666748 0.833171C0.666748 0.464981 0.965225 0.166504 1.33341 0.166504H8.00008C8.17689 0.166504 8.34646 0.236742 8.47149 0.361766L14.1996 6.08983C14.5721 6.46456 14.7811 6.97147 14.7811 7.49984C14.7811 8.02821 14.5721 8.53511 14.1996 8.90984L13.7267 8.43984L14.1982 8.91124L9.41841 13.691C9.41833 13.6911 9.4185 13.6909 9.41841 13.691C9.23272 13.8768 9.01198 14.0245 8.76929 14.1251C8.5265 14.2257 8.26624 14.2776 8.00341 14.2776C7.74059 14.2776 7.48033 14.2257 7.23753 14.1251C6.9948 14.0245 6.77427 13.877 6.58856 13.6911C6.58851 13.6911 6.5886 13.6912 6.58856 13.6911L0.862285 7.97152C0.737093 7.84647 0.666748 7.67678 0.666748 7.49984V0.833171ZM13.2539 7.96984C13.2541 7.96963 13.2544 7.96943 13.2546 7.96922C13.3783 7.84437 13.4478 7.67567 13.4478 7.49984C13.4478 7.324 13.3783 7.1553 13.2546 7.03045C13.2544 7.03025 13.2541 7.03004 13.2539 7.02984L7.72394 1.49984H2.00008V7.22347L7.53121 12.7482L7.53175 12.7487C7.59366 12.8107 7.66719 12.8599 7.74812 12.8934C7.82905 12.927 7.9158 12.9442 8.00341 12.9442C8.09103 12.9442 8.17778 12.927 8.25871 12.8934C8.33964 12.8599 8.41317 12.8107 8.47508 12.7487L13.2539 7.96984Z" fill="#5E6164"/>
</svg>
