<svg width="17" height="16" viewBox="0 0 17 16" fill="none" xmlns="http://www.w3.org/2000/svg">
<path d="M15.5834 0H11.5834C11.1834 0 10.9167 0.266667 10.9167 0.666667C10.9167 1.06667 11.1834 1.33333 11.5834 1.33333H14.3834L10.7167 5C10.5167 5.2 10.5167 5.6 10.7167 5.86667C10.8501 5.93333 11.0501 6 11.1834 6C11.3167 6 11.5167 5.93333 11.5834 5.8L14.9167 2.46667V4.66667C14.9167 5.06667 15.1834 5.33333 15.5834 5.33333C15.9834 5.33333 16.2501 5.06667 16.2501 4.66667V0.666667C16.2501 0.266667 15.9834 0 15.5834 0Z" fill="#8898AA"/>
<path d="M13.5834 15.2667C13.5167 15.2667 13.4501 15.2667 13.3834 15.2667C11.2501 15 9.11673 14.2667 7.31673 13.1333C5.65007 12.0667 4.1834 10.6 3.11673 8.93333C1.91673 7.13333 1.1834 5 0.983398 2.86667C0.983398 2.33333 1.11673 1.8 1.45007 1.4C1.7834 1 2.25006 0.733333 2.7834 0.666667C2.85006 0.666667 2.91673 0.666667 2.9834 0.666667H4.9834C5.9834 0.666667 6.85007 1.4 6.9834 2.4C7.05007 3 7.1834 3.6 7.3834 4.13333C7.65006 4.86667 7.45007 5.66667 6.91673 6.26667L6.45007 6.73333C7.25007 7.93333 8.25006 9 9.51673 9.8L9.9834 9.33333C10.5167 8.8 11.3834 8.6 12.1167 8.86667C12.6501 9.06667 13.2501 9.2 13.8501 9.26667C14.8501 9.4 15.5834 10.2667 15.5834 11.2667V13.2667C15.5834 13.8 15.3834 14.3333 14.9834 14.6667C14.5834 15 14.1167 15.2667 13.5834 15.2667ZM4.9834 2H2.9834C2.7834 2 2.5834 2.13333 2.45007 2.26667C2.3834 2.4 2.31673 2.53333 2.31673 2.73333C2.51673 4.66667 3.1834 6.53333 4.25007 8.2C5.25007 9.73333 6.51673 11.0667 8.05007 12C9.71673 13.0667 11.5834 13.7333 13.5167 13.9333C13.7834 13.9333 13.9167 13.8667 14.0501 13.7333C14.1834 13.6 14.2501 13.4667 14.2501 13.2667V11.2667C14.2501 10.9333 13.9834 10.6667 13.6501 10.6C12.9834 10.5333 12.3167 10.3333 11.6501 10.0667C11.3834 10 11.1167 10 10.9167 10.2L10.0501 11.0667C9.85007 11.2667 9.51673 11.3333 9.25006 11.2C7.45007 10.2 5.9834 8.73333 4.9834 6.93333C4.91673 6.66667 4.9834 6.33333 5.1834 6.13333L6.05007 5.26667C6.1834 5.13333 6.25006 4.8 6.1834 4.6C5.91673 3.93333 5.7834 3.26667 5.65007 2.6C5.65007 2.26667 5.31673 2 4.9834 2Z" fill="#8898AA"/>
</svg>
