<?xml version="1.0" encoding="utf-8"?>
<!-- Generator: Adobe Illustrator 23.1.1, SVG Export Plug-In . SVG Version: 6.00 Build 0)  -->
<svg version="1.1" id="Layer_1" xmlns="http://www.w3.org/2000/svg" xmlns:xlink="http://www.w3.org/1999/xlink" x="0px" y="0px"
	 viewBox="0 0 14 16" style="enable-background:new 0 0 14 16;" xml:space="preserve">
<style type="text/css">
	.st0{fill:#00559F;}
</style>
<path class="st0" d="M8.6,8.9C8.1,9.2,7.6,9.4,7,9.4S5.9,9.2,5.4,8.9c-1.7,0.1-3,1.5-3,3.2V13l0.3,0.1c0.1,0,1.5,0.5,4.3,0.5
	c2.8,0,4.2-0.5,4.3-0.5l0.3-0.1v-0.8C11.6,10.4,10.3,9,8.6,8.9z"/>
<path class="st0" d="M7,8.5c1.6,0,2.8-1.7,2.8-3.2c0-1.5-1.2-2.8-2.8-2.8c-1.5,0-2.8,1.2-2.8,2.8C4.2,6.7,5.4,8.5,7,8.5z"/>
</svg>
