<svg width="12" height="10" viewBox="0 0 12 10" fill="none" xmlns="http://www.w3.org/2000/svg">
<path fill-rule="evenodd" clip-rule="evenodd" d="M0.5 0.5C0.5 0.223858 0.723858 0 1 0H4C4.66304 0 5.29893 0.263392 5.76777 0.732233C6.23661 1.20107 6.5 1.83696 6.5 2.5V9.5C6.5 9.77614 6.27614 10 6 10C5.72386 10 5.5 9.77614 5.5 9.5C5.5 9.23478 5.39464 8.98043 5.20711 8.79289C5.01957 8.60536 4.76522 8.5 4.5 8.5H1C0.723858 8.5 0.5 8.27614 0.5 8V0.5ZM5.5 7.76794V2.5C5.5 2.10218 5.34196 1.72064 5.06066 1.43934C4.77936 1.15804 4.39782 1 4 1H1.5V7.5H4.5C4.85411 7.5 5.19855 7.59391 5.5 7.76794Z" fill="white"/>
<path fill-rule="evenodd" clip-rule="evenodd" d="M6.23223 0.732233C6.70107 0.263392 7.33696 0 8 0H11C11.2761 0 11.5 0.223858 11.5 0.5V8C11.5 8.27614 11.2761 8.5 11 8.5H7.5C7.23478 8.5 6.98043 8.60536 6.79289 8.79289C6.60536 8.98043 6.5 9.23478 6.5 9.5C6.5 9.77614 6.27614 10 6 10C5.72386 10 5.5 9.77614 5.5 9.5V2.5C5.5 1.83696 5.76339 1.20107 6.23223 0.732233ZM6.5 7.76794C6.80145 7.59391 7.14588 7.5 7.5 7.5H10.5V1H8C7.60218 1 7.22064 1.15804 6.93934 1.43934C6.65804 1.72064 6.5 2.10218 6.5 2.5V7.76794Z" fill="white"/>
</svg>
