<svg width="17" height="13" viewBox="0 0 17 13" fill="none" xmlns="http://www.w3.org/2000/svg">
<path d="M13.0918 12.6665C14.748 12.6665 16.0918 11.3228 16.0918 9.6665V3.6665C16.0918 2.01025 14.748 0.666504 13.0918 0.666504H10.4668C10.248 0.666504 10.0918 0.854004 10.0918 1.0415V1.7915C10.0918 2.01025 10.248 2.1665 10.4668 2.1665H13.0918C13.9043 2.1665 14.5918 2.854 14.5918 3.6665V9.6665C14.5918 10.5103 13.9043 11.1665 13.0918 11.1665H10.4668C10.248 11.1665 10.0918 11.354 10.0918 11.5415V12.2915C10.0918 12.5103 10.248 12.6665 10.4668 12.6665H13.0918ZM5.31055 1.2915L4.68555 1.9165C4.5293 2.0415 4.5293 2.2915 4.68555 2.44775L8.2168 5.854H0.466797C0.248047 5.854 0.0917969 6.0415 0.0917969 6.229V7.104C0.0917969 7.32275 0.248047 7.479 0.466797 7.479H8.2168L4.68555 10.9165C4.5293 11.0728 4.5293 11.3228 4.68555 11.4478L5.31055 12.0728C5.43555 12.229 5.68555 12.229 5.8418 12.0728L10.9668 6.94775C11.123 6.7915 11.123 6.57275 10.9668 6.4165L5.8418 1.2915C5.68555 1.13525 5.43555 1.13525 5.31055 1.2915Z" fill="#00559F"/>
</svg>
