<svg width="12" height="9" viewBox="0 0 12 9" fill="none" xmlns="http://www.w3.org/2000/svg">
<path d="M6 2.396C5.78516 2.41553 5.57031 2.43506 5.375 2.49365C5.47266 2.6499 5.51172 2.84521 5.53125 3.021C5.53125 3.62646 5.02344 4.11475 4.4375 4.11475C4.24219 4.11475 4.04688 4.07568 3.91016 3.97803C3.85156 4.17334 3.8125 4.36865 3.8125 4.5835C3.8125 5.79443 4.78906 6.771 6 6.771C7.21094 6.771 8.1875 5.79443 8.1875 4.5835C8.1875 3.39209 7.21094 2.41553 6 2.41553V2.396ZM11.5469 4.31006C10.4922 2.23975 8.38281 0.833496 6 0.833496C3.59766 0.833496 1.48828 2.23975 0.433594 4.31006C0.394531 4.38818 0.375 4.48584 0.375 4.5835C0.375 4.70068 0.394531 4.79834 0.433594 4.87646C1.48828 6.94678 3.59766 8.3335 6 8.3335C8.38281 8.3335 10.4922 6.94678 11.5469 4.87646C11.5859 4.79834 11.6055 4.70068 11.6055 4.60303C11.6055 4.48584 11.5859 4.38818 11.5469 4.31006ZM6 7.396C4.06641 7.396 2.28906 6.32178 1.35156 4.5835C2.28906 2.84521 4.06641 1.771 6 1.771C7.91406 1.771 9.69141 2.84521 10.6289 4.5835C9.69141 6.32178 7.91406 7.396 6 7.396Z" fill="#8898AA"/>
</svg>
