<svg width="10" height="11" viewBox="0 0 10 11" fill="none" xmlns="http://www.w3.org/2000/svg">
<path d="M1.36364 3.22727C2.11675 3.22727 2.72727 2.61675 2.72727 1.86364C2.72727 1.11052 2.11675 0.5 1.36364 0.5C0.610521 0.5 0 1.11052 0 1.86364C0 2.61675 0.610521 3.22727 1.36364 3.22727Z" fill="#00559F"/>
<path d="M1.36364 6.86362C2.11675 6.86362 2.72727 6.2531 2.72727 5.49999C2.72727 4.74687 2.11675 4.13635 1.36364 4.13635C0.610521 4.13635 0 4.74687 0 5.49999C0 6.2531 0.610521 6.86362 1.36364 6.86362Z" fill="#00559F"/>
<path d="M1.36364 10.5C2.11675 10.5 2.72727 9.88946 2.72727 9.13634C2.72727 8.38323 2.11675 7.77271 1.36364 7.77271C0.610521 7.77271 0 8.38323 0 9.13634C0 9.88946 0.610521 10.5 1.36364 10.5Z" fill="#00559F"/>
<rect x="3.63623" y="1.40906" width="6.36364" height="0.909091" fill="#00559F"/>
<rect x="3.63623" y="5.04541" width="6.36364" height="0.909091" fill="#00559F"/>
<rect x="3.63623" y="8.68176" width="6.36364" height="0.909091" fill="#00559F"/>
</svg>
