<svg width="10" height="12" viewBox="0 0 10 12" fill="none" xmlns="http://www.w3.org/2000/svg">
<path fill-rule="evenodd" clip-rule="evenodd" d="M9.36301 9.49072H1.50847C1.02648 9.49072 0.635742 9.88146 0.635742 10.3634H0.635742C0.635742 10.8454 1.02648 11.2362 1.50847 11.2362H9.36301C9.36301 11.2362 9.01392 10.7562 9.01392 10.3634C9.01392 9.97072 9.36301 9.49072 9.36301 9.49072Z" fill="#8898AA"/>
<path fill-rule="evenodd" clip-rule="evenodd" d="M8.49029 0.763672H5.17392V4.25458L3.77756 3.20731L2.3812 4.25458V0.763672H1.50847C1.02671 0.764249 0.636319 1.15464 0.635742 1.6364V9.51032C0.864954 9.27468 1.17974 9.14178 1.50847 9.14185H9.36301V1.6364C9.36244 1.15464 8.97204 0.764249 8.49029 0.763672Z" fill="#8898AA"/>
</svg>
