<svg width="21" height="21" viewBox="0 0 21 21" fill="none" xmlns="http://www.w3.org/2000/svg">
<path d="M6.56046 17.9972C6.58466 17.6584 6.63306 17.3207 6.70566 16.9879C6.76918 16.6905 6.96176 15.8486 7.24409 14.6285L7.25115 14.5983L7.64136 12.9164C7.72101 12.5736 7.78252 12.3074 7.82386 12.2187C7.62806 11.766 7.53046 11.277 7.5375 10.7839C7.5375 9.43577 8.29978 8.39118 9.28791 8.39118C9.6509 8.38513 9.99775 8.54242 10.2377 8.82071C10.4777 9.09799 10.5886 9.47006 10.5422 9.82498C10.5422 10.2817 10.4565 10.6296 10.0855 11.8769C10.0139 12.1168 9.96448 12.2842 9.91809 12.4526C9.86667 12.6422 9.82231 12.8136 9.785 12.9789C9.6882 13.3681 9.77693 13.7825 10.024 14.0941C10.1439 14.2464 10.2986 14.3676 10.4751 14.4476C10.6516 14.5277 10.8448 14.5641 11.0383 14.5539C12.5427 14.5539 13.6599 12.5524 13.6599 9.96815C13.6599 7.98181 12.3592 6.66699 10.1994 6.66699C9.65875 6.64689 9.11981 6.73921 8.61666 6.9381C8.11352 7.137 7.65713 7.43815 7.27635 7.8225C6.88741 8.21527 6.58056 8.68154 6.37369 9.19413C6.16682 9.70671 6.06407 10.2554 6.07144 10.8081C6.04637 11.4037 6.22884 11.9896 6.58768 12.4657C6.77019 12.6069 6.83976 12.8519 6.76414 13.0606C6.7228 13.23 6.62297 13.6172 6.58668 13.7463C6.57615 13.8097 6.55099 13.8697 6.51318 13.9217C6.47538 13.9737 6.42597 14.0162 6.36888 14.0457C6.31368 14.0745 6.25241 14.0897 6.19015 14.0901C6.1279 14.0904 6.06646 14.0759 6.01094 14.0477C4.84131 13.5648 4.20003 12.255 4.20003 10.5792C4.20003 7.56941 6.7117 4.94884 10.4434 4.94884C13.6044 4.94884 15.9699 7.29717 15.9699 10.1315C15.9699 13.6928 14.0219 16.2862 11.241 16.2862C10.8454 16.2976 10.4527 16.2161 10.0944 16.0482C9.73612 15.8802 9.42224 15.6305 9.178 15.3192L9.13465 15.4977L8.92593 16.3567L8.92391 16.3638C8.7767 16.9688 8.67385 17.3892 8.63352 17.5475C8.52664 17.9055 8.39153 18.2564 8.2302 18.5962C10.2366 19.0738 12.3497 18.7648 14.1353 17.7325C15.9209 16.7003 17.2433 15.0233 17.8306 13.0463C18.418 11.0692 18.2257 8.94227 17.2934 7.10258C16.361 5.26289 14.7594 3.85021 12.8177 3.15489C10.8759 2.45958 8.74164 2.53445 6.85341 3.36411C4.96517 4.19377 3.46647 5.71521 2.66531 7.61571C1.86415 9.51621 1.82141 11.6514 2.54587 13.5824C3.27033 15.5135 4.70694 17.0937 6.56046 17.9982V17.9972ZM10.0996 20.8295C4.53076 20.8295 0.0166016 16.3154 0.0166016 10.7466C0.0166016 5.17773 4.53076 0.663574 10.0996 0.663574C15.6684 0.663574 20.1826 5.17773 20.1826 10.7466C20.1826 16.3154 15.6684 20.8295 10.0996 20.8295Z" fill="#959595"/>
</svg>
